<?xml version="1.0" encoding="UTF-8" standalone="no"?>
<!-- Created with Inkscape (http://www.inkscape.org/) -->
<svg
   xmlns:a="http://ns.adobe.com/AdobeSVGViewerExtensions/3.0/"
   xmlns:dc="http://purl.org/dc/elements/1.1/"
   xmlns:cc="http://web.resource.org/cc/"
   xmlns:rdf="http://www.w3.org/1999/02/22-rdf-syntax-ns#"
   xmlns:svg="http://www.w3.org/2000/svg"
   xmlns="http://www.w3.org/2000/svg"
   xmlns:xlink="http://www.w3.org/1999/xlink"
   xmlns:sodipodi="http://sodipodi.sourceforge.net/DTD/sodipodi-0.dtd"
   xmlns:inkscape="http://www.inkscape.org/namespaces/inkscape"
   width="744.09448819"
   height="1052.3622047"
   id="svg2"
   sodipodi:version="0.32"
   inkscape:version="0.45"
   sodipodi:docbase="/home/bernie/software/sidux-graphics/sidux-browser-svg"
   sodipodi:docname="sidux-browser-WIP_tartaros.svg"
   inkscape:output_extension="org.inkscape.output.svg.inkscape"
   inkscape:export-filename="/home/bernie/software/sidux-graphics/sidux-browser-svg/sidux-browser-WIP_tartaros.png"
   inkscape:export-xdpi="90"
   inkscape:export-ydpi="90"
   sodipodi:modified="true">
  <defs
     id="defs4">
    <linearGradient
       inkscape:collect="always"
       xlink:href="#XMLID_9_"
       id="linearGradient19958"
       gradientUnits="userSpaceOnUse"
       x1="31.704992"
       y1="80.283234"
       x2="90.308899"
       y2="17.998331"
       gradientTransform="matrix(0.9528221,0,0,-0.9528221,-2.6872803,108.39229)" />
    <linearGradient
       inkscape:collect="always"
       xlink:href="#XMLID_10_"
       id="linearGradient19977"
       gradientUnits="userSpaceOnUse"
       gradientTransform="matrix(0.9528221,0,0,0.9528221,-2.6872803,4.9935356)"
       x1="37.875999"
       y1="25.1777"
       x2="71.260002"
       y2="58.562099" />
    <linearGradient
       inkscape:collect="always"
       xlink:href="#XMLID_9_"
       id="linearGradient19944"
       gradientUnits="userSpaceOnUse"
       x1="54.390705"
       y1="49.275139"
       x2="38.107403"
       y2="79.754318"
       gradientTransform="matrix(0.9528221,0,0,-0.9528221,-2.6872803,108.39229)" />
    <linearGradient
       inkscape:collect="always"
       xlink:href="#XMLID_8_"
       id="linearGradient19951"
       gradientUnits="userSpaceOnUse"
       x1="58.744099"
       y1="50.875"
       x2="43.876732"
       y2="72.354248"
       gradientTransform="matrix(0.9528221,0,0,-0.9528221,-2.6872803,108.39229)" />
    <linearGradient
       id="XMLID_10_"
       gradientUnits="userSpaceOnUse"
       x1="37.876"
       y1="25.1777"
       x2="71.26"
       y2="58.5621">
      <stop
         offset="0"
         style="stop-color:#4f110c;stop-opacity:1;"
         id="stop1522" />
      <stop
         offset="1"
         style="stop-color:#b74630;stop-opacity:1;"
         id="stop1524" />
      <a:midPointStop
         offset="0"
         style="stop-color:#003DC7"
         id="midPointStop1526" />
      <a:midPointStop
         offset="0.5"
         style="stop-color:#003DC7"
         id="midPointStop1528" />
      <a:midPointStop
         offset="1"
         style="stop-color:#6DCDFF"
         id="midPointStop1530" />
    </linearGradient>
    <linearGradient
       id="XMLID_9_"
       gradientUnits="userSpaceOnUse"
       x1="59.3472"
       y1="65.0439"
       x2="59.3472"
       y2="31.6506">
      <stop
         offset="0"
         style="stop-color:#310004;stop-opacity:1;"
         id="stop1507" />
      <stop
         offset="1"
         style="stop-color:#ada9a6;stop-opacity:1;"
         id="stop1509" />
      <a:midPointStop
         offset="0"
         style="stop-color:#0095FF"
         id="midPointStop1511" />
      <a:midPointStop
         offset="0.5"
         style="stop-color:#0095FF"
         id="midPointStop1513" />
      <a:midPointStop
         offset="1"
         style="stop-color:#00E1FF"
         id="midPointStop1515" />
    </linearGradient>
    <linearGradient
       id="XMLID_8_"
       gradientUnits="userSpaceOnUse"
       x1="58.7441"
       y1="50.875"
       x2="58.7441"
       y2="71.2215">
      <stop
         offset="0"
         style="stop-color:#d70400;stop-opacity:1;"
         id="stop1492" />
      <stop
         offset="1"
         style="stop-color:#541014;stop-opacity:1;"
         id="stop1494" />
      <a:midPointStop
         offset="0"
         style="stop-color:#006FFF"
         id="midPointStop1496" />
      <a:midPointStop
         offset="0.5"
         style="stop-color:#006FFF"
         id="midPointStop1498" />
      <a:midPointStop
         offset="1"
         style="stop-color:#00E1FF"
         id="midPointStop1500" />
    </linearGradient>
    <linearGradient
       id="linearGradient6237">
      <stop
         style="stop-color:#ffffff;stop-opacity:1;"
         offset="0"
         id="stop6239" />
      <stop
         style="stop-color:#af6d6d;stop-opacity:0;"
         offset="1"
         id="stop6241" />
    </linearGradient>
    <linearGradient
       id="linearGradient5803">
      <stop
         style="stop-color:#ffffff;stop-opacity:1;"
         offset="0"
         id="stop5805" />
      <stop
         style="stop-color:#ffffff;stop-opacity:0;"
         offset="1"
         id="stop5807" />
    </linearGradient>
    <linearGradient
       id="linearGradient5792">
      <stop
         style="stop-color:#580000;stop-opacity:1;"
         offset="0"
         id="stop5794" />
      <stop
         style="stop-color:#580000;stop-opacity:0;"
         offset="1"
         id="stop5796" />
    </linearGradient>
    <linearGradient
       inkscape:collect="always"
       xlink:href="#linearGradient5792"
       id="linearGradient5798"
       x1="245.71428"
       y1="552.24982"
       x2="251.77519"
       y2="924.8045"
       gradientUnits="userSpaceOnUse" />
    <filter
       inkscape:collect="always"
       id="filter6006">
      <feGaussianBlur
         inkscape:collect="always"
         stdDeviation="1.3308518"
         id="feGaussianBlur6008" />
    </filter>
    <filter
       inkscape:collect="always"
       x="-0.078635451"
       width="1.1572709"
       y="-0.16611485"
       height="1.3322297"
       id="filter6311">
      <feGaussianBlur
         inkscape:collect="always"
         stdDeviation="7.0157567"
         id="feGaussianBlur6313" />
    </filter>
    <filter
       inkscape:collect="always"
       id="filter6341">
      <feGaussianBlur
         inkscape:collect="always"
         stdDeviation="2.2281025"
         id="feGaussianBlur6343" />
    </filter>
    <radialGradient
       inkscape:collect="always"
       xlink:href="#XMLID_8_"
       id="radialGradient3266"
       cx="267.14285"
       cy="717.00507"
       fx="267.14285"
       fy="717.00507"
       r="117.14286"
       gradientUnits="userSpaceOnUse"
       gradientTransform="matrix(0.9980627,-6.2216891e-2,7.317073e-2,1.1737805,-51.946236,-107.98069)" />
    <linearGradient
       inkscape:collect="always"
       xlink:href="#linearGradient5803"
       id="linearGradient3285"
       gradientUnits="userSpaceOnUse"
       x1="366.1803"
       y1="425.05743"
       x2="366.1803"
       y2="520.01178" />
    <radialGradient
       inkscape:collect="always"
       xlink:href="#linearGradient6237"
       id="radialGradient3287"
       gradientUnits="userSpaceOnUse"
       gradientTransform="matrix(2.2227977,-2.1523157e-3,1.5766127e-3,1.6282437,-443.11816,-415.62493)"
       cx="361.53125"
       cy="658.73639"
       fx="361.53125"
       fy="658.73639"
       r="89.21875" />
  </defs>
  <sodipodi:namedview
     id="base"
     pagecolor="#ffffff"
     bordercolor="#666666"
     borderopacity="1.0"
     gridtolerance="10000"
     guidetolerance="10"
     objecttolerance="10"
     inkscape:pageopacity="0.0"
     inkscape:pageshadow="2"
     inkscape:zoom="0.9899495"
     inkscape:cx="278.47162"
     inkscape:cy="425.96461"
     inkscape:document-units="px"
     inkscape:current-layer="layer4"
     inkscape:window-width="1392"
     inkscape:window-height="985"
     inkscape:window-x="0"
     inkscape:window-y="32" />
  <metadata
     id="metadata7">
    <rdf:RDF>
      <cc:Work
         rdf:about="">
        <dc:format>image/svg+xml</dc:format>
        <dc:type
           rdf:resource="http://purl.org/dc/dcmitype/StillImage" />
        <dc:title>sidux-browser-gear</dc:title>
        <dc:date>18th May 2007</dc:date>
        <dc:creator>
          <cc:Agent>
            <dc:title>Bernard Gray &lt;bernard.gray@gmail.com&gt;</dc:title>
          </cc:Agent>
        </dc:creator>
        <dc:rights>
          <cc:Agent>
            <dc:title>Copyright (C) 2007</dc:title>
          </cc:Agent>
        </dc:rights>
        <dc:identifier>sidux-art</dc:identifier>
        <dc:description>a sidux browser icon - License: GPLv2 or later</dc:description>
        <cc:license
           rdf:resource="http://creativecommons.org/licenses/GPL/2.0/" />
      </cc:Work>
      <cc:License
         rdf:about="http://creativecommons.org/licenses/GPL/2.0/">
        <cc:permits
           rdf:resource="http://web.resource.org/cc/Reproduction" />
        <cc:permits
           rdf:resource="http://web.resource.org/cc/Distribution" />
        <cc:requires
           rdf:resource="http://web.resource.org/cc/Notice" />
        <cc:permits
           rdf:resource="http://web.resource.org/cc/DerivativeWorks" />
        <cc:requires
           rdf:resource="http://web.resource.org/cc/ShareAlike" />
        <cc:requires
           rdf:resource="http://web.resource.org/cc/SourceCode" />
      </cc:License>
    </rdf:RDF>
  </metadata>
  <g
     inkscape:label="planet"
     inkscape:groupmode="layer"
     id="layer1"
     style="display:inline">
    <path
       sodipodi:type="arc"
       style="opacity:1;fill:url(#radialGradient3266);fill-opacity:1;stroke:none;stroke-width:5.93900013;stroke-miterlimit:4;stroke-dasharray:none;stroke-opacity:0.70833333"
       id="path3135"
       sodipodi:cx="245.71428"
       sodipodi:cy="672.36218"
       sodipodi:rx="117.14286"
       sodipodi:ry="117.14286"
       d="M 362.85714 672.36218 A 117.14286 117.14286 0 1 1  128.57142,672.36218 A 117.14286 117.14286 0 1 1  362.85714 672.36218 z"
       transform="translate(115.71429,-138.57143)"
       inkscape:export-filename="/home/bgray/software/sidux-art/svg-fun/sidux-browser-red-WIP.jpg"
       inkscape:export-xdpi="90"
       inkscape:export-ydpi="90" />
    <path
       style="opacity:0.72159091;fill:#eba5a5;fill-opacity:1;fill-rule:evenodd;stroke:none;stroke-width:1px;stroke-linecap:butt;stroke-linejoin:miter;stroke-opacity:1"
       d="M 442.14286,580.93361 C 441.9567,578.44906 440,573.23371 440,568.79075 C 440,564.58425 440.51228,561.74164 441.42857,558.07647 C 441.77144,556.70498 433.25734,555.29785 442.14286,553.07647 C 447.78693,551.66545 447.62883,551.90555 450,556.6479 C 452.74244,562.13278 454.96496,554.5138 457.85714,553.79075 C 460.65978,553.09009 459.18912,558.02817 463.57143,560.21932 C 467.03738,561.9523 471.42857,554.75081 471.42857,560.93361 C 471.42857,565.28525 470.04912,567.97823 468.57143,570.93361 C 466.70058,574.67531 465.37215,578.04645 463.57143,581.6479 C 461.22929,586.33218 458.94809,586.19659 454.28571,587.36218 C 453.46013,587.56858 449.21768,582.34517 446.42857,581.6479 C 445.02354,581.29664 443.57143,581.17171 442.14286,580.93361 z "
       id="path5729"
       inkscape:export-filename="/home/bgray/software/sidux-art/svg-fun/sidux-browser-red-WIP.jpg"
       inkscape:export-xdpi="90"
       inkscape:export-ydpi="90" />
    <path
       style="opacity:0.72159091;fill:#eba5a5;fill-opacity:1;fill-rule:evenodd;stroke:none;stroke-width:1px;stroke-linecap:butt;stroke-linejoin:miter;stroke-opacity:1"
       d="M 276.42857,607.36218 C 281.65974,607.67318 283.68282,607.58496 280.71429,601.6479 C 279.13399,598.4873 275.99934,595.07515 274.28571,591.6479 C 272.21685,587.51018 271.51397,585.04853 273.57143,580.93361 C 275.61858,576.83931 280.26348,574.12886 283.57143,571.6479 C 287.20618,568.92183 290.70534,569.51398 294.28571,565.93361 C 297.00059,563.21873 296.98709,558.69954 297.85714,555.21932 C 298.93505,550.90771 303.8776,550.42338 307.14286,548.79075 C 312.9759,545.87423 311.79141,541.74145 307.85714,538.79075 C 304.09347,535.968 301.86684,531.40032 297.14286,530.21932 C 292.74914,529.12089 296.16889,523.01155 290.71429,521.6479 C 286.11467,520.49799 282.13997,517.7186 277.85714,516.6479 C 273.1267,515.46529 270.82685,513.07647 265.71429,513.07647 C 259.89041,513.07647 258.57143,508.37158 258.57143,504.50504 C 258.57143,501.90944 260,497.31148 260,493.79075 C 260,489.39402 264.97442,485.9464 267.85714,484.50504 C 270.7537,483.05676 265,490.55231 265,493.79075 C 265,496.91766 272.50179,498.34388 273.57143,498.07647 C 276.54776,497.33239 267.10737,492.73707 272.14286,490.21932 C 277.2184,487.68156 277.9254,483.21298 275.71429,478.79075 C 273.90414,475.17045 282.80827,474.88662 286.42857,473.07647 C 290.43512,471.07319 294.02838,469.27657 297.85714,467.36218 C 302.15946,465.21102 304.95392,462.73084 309.28571,461.6479 C 313.01938,460.71448 316.40397,459.68976 320,458.79075 C 323.48839,457.91866 323.11671,453.46676 323.57143,451.6479 C 324.30187,448.72612 330.01327,456.63463 332.14286,454.50504 C 336.36657,450.28132 336.59328,450.21932 343.57143,450.21932 C 348.41527,450.21932 351.3797,450.95805 354.28571,449.50504 C 357.60365,447.84607 350.86135,442.36218 348.57143,442.36218 C 343.95569,442.36218 340.44422,441.22324 336.42857,440.21932 C 331.33236,438.94527 330.10925,435.82436 333.57143,432.36218 C 334.8702,431.06341 340.10972,436.67533 342.85714,437.36218 C 346.34857,438.23504 348.72935,432.58023 353.57143,433.79075 C 356.16136,434.43824 360.22067,439.67342 360.71429,441.6479 C 361.5609,445.03434 357.91182,449.28635 357.14286,452.36218 C 356.16916,456.25698 355.38208,458.8905 356.42857,463.07647 C 357.77943,468.47989 365.50065,467.41559 357.14286,469.50504 C 353.14819,470.50371 354.29562,476.60828 353.57143,479.50504 C 352.83856,482.43651 347.12022,483.80207 344.28571,485.21932 C 340.87825,486.92306 336.20527,491.8712 333.57143,494.50504 C 330.15744,497.91902 326.42857,497.3881 326.42857,503.07647 C 326.42857,506.79681 327.09173,510.86545 329.28571,513.79075 C 332.64633,518.27158 335.5475,521.48111 339.28571,525.21932 C 342.89066,528.82427 346.41575,528.07647 351.42857,528.07647 C 355.43855,528.07647 359.43129,526.6479 363.57143,526.6479 C 367.75417,526.6479 367.14286,532.3568 367.14286,535.93361 C 367.14286,540.31306 368.21508,543.07805 370,546.6479 C 372.09839,550.84469 369.91206,556.2082 370.71429,560.21932 C 371.36726,563.48418 374.904,567.88447 376.42857,570.93361 C 377.95692,573.99031 380,577.98331 380,581.6479 C 380,585.41697 387.66726,584.50504 390.71429,584.50504 C 395.48489,584.50504 398.06332,581.94983 400,578.07647 C 402.09109,573.89429 400.86518,569.20326 402.85714,565.21932 C 404.98508,560.96345 407.60371,559.27461 411.42857,557.36218 C 414.53269,555.81012 418.82352,554.37899 421.42857,553.07647 C 425.28011,551.1507 419.19471,544.70636 425.71429,543.07647 C 430.73339,541.82169 431.1373,535.80186 432.85714,532.36218 C 434.63841,528.79965 439.6162,523.68414 440.71429,528.07647 C 442.01648,533.28523 440.40242,534.50504 447.14286,534.50504 C 450.46923,534.50504 446.79321,523.10646 446.42857,521.6479 C 444.9505,515.73562 435.06024,520.87337 440.71429,515.21932 C 445.71294,510.22067 440.60562,515.93361 447.14286,515.93361 C 450.52403,515.93361 445.6664,508.74287 450.71429,513.79075 C 451.62238,514.69885 450.24858,523.35649 450.71429,525.21932 C 451.66777,529.03325 460.62816,521.53392 461.42857,520.93361 C 465.71103,517.72177 465.71429,520.52727 465.71429,525.93361 C 465.71429,529.90421 462.39475,532.78319 461.42857,536.6479 C 459.87916,542.84556 457.51565,538.72814 458.57143,534.50504 C 458.87364,533.29618 450.71429,531.3974 450.71429,537.36218 C 450.71429,542.56683 454.54238,544.74778 459.28571,545.93361 C 464.64207,547.2727 465.48106,542.82863 467.14286,539.50504 C 468.34868,537.09339 467.21229,531.37017 467.85714,528.79075 C 469.31946,522.94148 471.42857,531.02629 471.42857,533.79075 C 471.42857,536.13572 472.62757,538.56118 474.28571,540.21932 C 476.83345,542.76706 475.35714,534.89378 475.35714,531.29075 C 475.35714,527.71932 475,523.79075 475,520.21932 C 475,515.44516 474.10315,511.99705 473.21429,507.71932 C 472.27983,503.22215 469.24623,496.84709 468.21429,492.71933 C 467.16365,488.51679 464.56298,486.32839 463.57143,482.36219 C 462.44679,477.86363 457.53209,473.20484 456.42857,468.79075 C 455.38183,464.60378 449.83629,460.05562 447.14286,457.36218 C 443.43291,453.65223 440.26072,449.6113 436.78571,447.00504 C 433.09745,444.23884 428.8595,440.2568 425,437.36218 C 421.68879,434.87878 416.47087,433.09339 412.85714,431.6479 C 408.62123,429.95353 405.34577,428.28392 401.42858,425.93361 C 397.85961,423.79223 393.34745,424.03591 388.21429,422.00504 C 383.8582,420.2816 376.75922,419.1479 371.78571,419.1479 C 367.49608,419.1479 364.06959,418.07647 359.28571,418.07647 C 355.34179,418.07647 351.42913,417.89776 347.85714,418.79075 C 343.98461,419.75889 340.14313,420.00497 336.42857,420.93361 C 332.53838,421.90616 328.83437,422.83216 325,423.79075 C 320.96357,424.79986 316.88259,427.02167 313.57143,429.50504 C 309.88548,432.2695 305.3988,432.95594 301.42857,435.93361 C 297.89377,438.58472 292.37406,442.13099 289.64286,444.86218 C 286.07143,448.43361 282.85714,450.57647 279.28572,454.14789 C 275.67668,457.75693 273.60773,461.6116 270,465.21932 C 266.99934,468.21999 264.90028,471.68964 262.14286,475.93361 C 260.1248,479.03961 258.37131,482.76243 256.78572,485.93361 C 254.94641,489.61222 254.665,493.74646 252.85714,497.36218 C 251.20264,500.67119 251.4167,504.5644 250.71429,508.07647 C 250.00967,511.59953 260.09926,518.33436 249.28571,517.36218 C 245.26195,517.00043 245.71429,524.85846 245.71429,528.79075 C 245.71429,532.36218 245.71429,535.93361 245.71429,539.50504 C 245.71429,543.79895 246.15237,546.97166 247.14286,550.93361 C 248.045,554.54219 250,561.77486 250,565.57647 C 250,568.98778 252.70671,570.68904 253.57143,574.1479 C 254.60353,578.27631 256.14634,583.0573 258.57143,586.29075 C 261.46046,590.14279 263.55869,594.24996 266.42857,598.07647 C 269.45988,602.11821 271.57611,605.4212 276.42857,607.36218 z "
       id="path3965"
       inkscape:export-filename="/home/bgray/software/sidux-art/svg-fun/sidux-browser-red-WIP.jpg"
       inkscape:export-xdpi="90"
       inkscape:export-ydpi="90" />
    <path
       style="opacity:0.72159091;fill:#eba5a5;fill-opacity:1;fill-rule:evenodd;stroke:none;stroke-width:1px;stroke-linecap:butt;stroke-linejoin:miter;stroke-opacity:1"
       d="M 429.28571,593.07647 C 425.38031,592.10012 432.8391,585.25542 433.57143,583.79075 C 435.13221,580.66919 431.44143,574.32968 429.28571,573.79075 C 428.06082,573.48453 427.35013,583.67593 427.14286,584.50504 C 426.24398,588.10054 423.38571,586.61932 425,593.07647 C 425.34648,594.46239 427.85714,593.07647 429.28571,593.07647 z "
       id="path5731"
       inkscape:export-filename="/home/bgray/software/sidux-art/svg-fun/sidux-browser-red-WIP.jpg"
       inkscape:export-xdpi="90"
       inkscape:export-ydpi="90" />
    <path
       style="opacity:0.72159091;fill:#eba5a5;fill-opacity:1;fill-rule:evenodd;stroke:none;stroke-width:1px;stroke-linecap:butt;stroke-linejoin:miter;stroke-opacity:1"
       d="M 405.71429,575.21932 C 406.43785,578.11358 414.14933,567.63495 415,565.93361 C 417.66996,560.5937 419.27482,560.17573 418.57143,557.36218 C 418.23231,556.00572 409.59866,564.19209 409.28571,564.50504 C 406.45054,567.34021 405.71429,571.3316 405.71429,575.21932 z "
       id="path5733"
       inkscape:export-filename="/home/bgray/software/sidux-art/svg-fun/sidux-browser-red-WIP.jpg"
       inkscape:export-xdpi="90"
       inkscape:export-ydpi="90" />
    <path
       style="opacity:0.72159091;fill:#eba5a5;fill-opacity:1;fill-rule:evenodd;stroke:none;stroke-width:1px;stroke-linecap:butt;stroke-linejoin:miter;stroke-opacity:1"
       d="M 445.71429,550.21932 C 440.69278,555.24083 454.10339,539.23906 445,543.79075 C 440.34638,546.11756 437.48847,554.33223 445.71429,550.21932 z "
       id="path5735"
       inkscape:export-filename="/home/bgray/software/sidux-art/svg-fun/sidux-browser-red-WIP.jpg"
       inkscape:export-xdpi="90"
       inkscape:export-ydpi="90" />
    <g
       id="g3242">
      <path
         inkscape:export-ydpi="90"
         inkscape:export-xdpi="90"
         inkscape:export-filename="/home/bgray/software/sidux-art/svg-fun/sidux-browser-red-WIP.jpg"
         id="path5739"
         d="M 276.42857,516.6479 C 273.02123,518.35157 277.35252,508.91511 276.42857,505.21932 C 275.35498,500.92497 277.7642,496.77182 280,493.79075 C 284.58571,487.67648 280.71429,494.52692 280.71429,498.07647 C 280.71429,503.56281 282.03634,504.45178 286.42857,506.6479 C 289.65122,508.25922 286.98328,499.42907 287.85714,495.93361 C 288.74834,492.36882 294.80982,488.88585 297.85714,487.36218 C 301.6819,485.4498 305.3741,481.18875 308.57143,478.79075 C 311.79331,476.37435 315.5675,474.72031 319.28571,473.79075 C 323.15336,472.82384 326.64295,472.36218 330.71429,472.36218 C 334.84228,472.36218 338.13089,469.72531 341.42857,468.07647 C 344.87518,466.35316 348.17304,466.6479 352.14286,466.6479 C 357.97655,466.6479 353.32596,462.36218 349.28571,462.36218 C 345.31917,462.36218 341.73719,461.39217 337.85714,462.36218 C 337.74794,462.38948 342.26651,458.79075 335.71429,458.79075 C 330.92234,458.79075 327.85714,458.70851 327.85714,463.79075 C 327.85714,464.56342 340.92372,467.36218 330,467.36218 C 325.56485,467.36218 321.75089,465.21932 317.14286,465.21932 C 313.19389,465.21932 306.93841,466.72968 303.57143,468.07647 C 300.28556,469.39082 295.97187,475.02614 292.85714,477.36218 C 289.04171,480.22375 286.36871,483.13633 282.85714,486.6479 C 279.70591,489.79913 276.36882,491.76739 274.28571,495.93361 C 272.51135,499.48234 272.33405,503.74026 271.42857,507.36218 C 270.2088,512.24127 265.99678,513.932 271.42857,516.6479 C 272.91928,517.39325 274.76191,516.6479 276.42857,516.6479 z "
         style="opacity:1;fill:#4a0303;fill-opacity:1;fill-rule:evenodd;stroke:none;stroke-width:1px;stroke-linecap:butt;stroke-linejoin:miter;stroke-opacity:1" />
      <path
         inkscape:export-ydpi="90"
         inkscape:export-xdpi="90"
         inkscape:export-filename="/home/bgray/software/sidux-art/svg-fun/sidux-browser-red-WIP.jpg"
         id="path5737"
         d="M 277.85714,580.93361 C 276.85862,581.43287 285.75472,590.25976 287.85714,592.36218 C 291.16858,595.67362 291.04933,599.67256 295,601.6479 C 299.78747,604.04163 296.37772,593.7399 295,592.36218 C 291.60314,588.96533 289.63962,585.20637 288.57143,580.93361 C 287.51396,576.70375 292.30633,572.95387 295,570.93361 C 298.28993,568.46616 297.50596,565.12855 302.85714,563.79075 C 307.88332,562.53421 307.72736,561.19318 310,556.6479 C 311.92119,552.80552 313.1701,549.32586 315.71429,545.93361 C 319.2383,541.23493 319.17884,539.80874 314.28571,537.36218 C 309.80217,535.12041 305.71429,533.18206 305.71429,528.79075 C 305.71429,523.96383 305.85087,523.07647 300,523.07647 C 294.91599,523.07647 293.75336,523.80421 295,528.79075 C 295.193,529.56275 303.63699,535.28488 305,536.6479 C 308.43364,540.08154 310.35683,543.61234 305.71429,545.93361 C 301.44957,548.06597 298.93387,548.78369 295.71429,553.07647 C 292.87152,556.86682 290.6205,560.82056 287.85714,564.50504 C 284.84259,568.52445 282.93009,570.18285 278.57143,572.36218 C 275.07778,574.10901 276.81694,578.33311 277.85714,580.93361 z "
         style="fill:#4a0303;fill-opacity:1;fill-rule:evenodd;stroke:none;stroke-width:1px;stroke-linecap:butt;stroke-linejoin:miter;stroke-opacity:1" />
      <path
         inkscape:export-ydpi="90"
         inkscape:export-xdpi="90"
         inkscape:export-filename="/home/bgray/software/sidux-art/svg-fun/sidux-browser-red-WIP.jpg"
         id="path5741"
         d="M 420,585.21932 C 423.41399,586.92632 419.00729,577.20474 420.71429,573.79075 C 422.09749,571.02434 423.05985,564.30233 417.85714,569.50504 C 416.22356,571.13863 414.77768,577.65861 412.85714,580.21932 C 409.85318,584.22461 418.7559,585.21932 420,585.21932 z "
         style="fill:#4a0303;fill-opacity:1;fill-rule:evenodd;stroke:none;stroke-width:1px;stroke-linecap:butt;stroke-linejoin:miter;stroke-opacity:1" />
      <path
         inkscape:export-ydpi="90"
         inkscape:export-xdpi="90"
         inkscape:export-filename="/home/bgray/software/sidux-art/svg-fun/sidux-browser-red-WIP.jpg"
         id="path5743"
         d="M 426.42857,553.07647 C 424.83138,555.20606 433.09524,552.12409 434.28571,554.50504 C 436.37391,558.68143 439.35797,556.22262 440.71429,561.6479 C 441.45294,564.60253 439.28571,569.48143 439.28571,573.07647 C 439.28571,578.22534 441.58416,581.76459 435.71429,577.36218 C 432.05573,574.61826 428.57143,573.89817 428.57143,569.50504 C 428.57143,565.09897 430.80016,561.73377 427.14286,558.07647 C 426.80614,557.73975 427.14286,557.12409 427.14286,556.6479 C 426.28439,555.78943 426.66667,554.26695 426.42857,553.07647 z "
         style="fill:#4a0303;fill-opacity:1;fill-rule:evenodd;stroke:none;stroke-width:1px;stroke-linecap:butt;stroke-linejoin:miter;stroke-opacity:1" />
      <path
         inkscape:export-ydpi="90"
         inkscape:export-xdpi="90"
         inkscape:export-filename="/home/bgray/software/sidux-art/svg-fun/sidux-browser-red-WIP.jpg"
         id="path5747"
         d="M 433.57143,541.6479 C 430.61336,542.38741 436.32765,533.76552 439.28571,534.50504 C 442.33327,535.26693 441.69889,541.37758 446.42857,536.6479 C 449.55945,533.51701 448.10238,529.77169 447.14286,525.93361 C 445.76033,520.40349 440.06087,521.40441 441.42857,515.93361 C 442.05639,513.42232 448.57143,521.20563 448.57143,513.07647 C 448.57143,509.74772 450.38232,519.60574 450.71429,520.93361 C 451.81499,525.33643 451.76162,528.3383 456.42857,529.50504 C 457.89694,529.87213 451.97258,537.82731 450.71429,539.50504 C 448.30313,542.71991 450.40508,543.07647 443.57143,543.07647 C 438.38449,543.07647 440.18444,537.33871 438.57143,543.79075 C 438.31037,544.83499 433.09092,539.72588 435,547.36218 C 435.29445,548.53998 428.70038,549.76631 433.57143,541.6479 z "
         style="fill:#4a0303;fill-opacity:1;fill-rule:evenodd;stroke:none;stroke-width:1px;stroke-linecap:butt;stroke-linejoin:miter;stroke-opacity:1" />
      <path
         inkscape:export-ydpi="90"
         inkscape:export-xdpi="90"
         inkscape:export-filename="/home/bgray/software/sidux-art/svg-fun/sidux-browser-red-WIP.jpg"
         id="path5745"
         d="M 432.14286,549.50504 C 430.88188,548.24406 440.61586,540.77965 431.42857,543.07647 C 428.25351,543.87023 429.20391,548.32946 432.14286,549.50504 z "
         style="fill:#4a0303;fill-opacity:1;fill-rule:evenodd;stroke:none;stroke-width:1px;stroke-linecap:butt;stroke-linejoin:miter;stroke-opacity:1" />
      <path
         inkscape:export-ydpi="90"
         inkscape:export-xdpi="90"
         inkscape:export-filename="/home/bgray/software/sidux-art/svg-fun/sidux-browser-red-WIP.jpg"
         id="path5749"
         d="M 433.86052,520.01179 C 430.13479,520.69093 427.7996,521.76853 427.7996,516.47626 C 427.7996,513.86142 425.19981,510.82121 423.75899,508.90011 C 421.64214,506.07765 421.44848,503.55914 418.70823,500.81889 C 417.05409,499.16475 412.95982,493.05017 417.193,497.28336 C 419.85193,499.94228 422.05635,502.42096 424.26407,505.36458 C 426.22133,507.97426 428.17053,510.74155 429.81991,512.94072 C 431.33891,514.96606 432.83639,517.45147 433.86052,520.01179 z "
         style="fill:#4a0303;fill-opacity:1;fill-rule:evenodd;stroke:none;stroke-width:1px;stroke-linecap:butt;stroke-linejoin:miter;stroke-opacity:1" />
      <path
         inkscape:export-ydpi="90"
         inkscape:export-xdpi="90"
         inkscape:export-filename="/home/bgray/software/sidux-art/svg-fun/sidux-browser-red-WIP.jpg"
         id="path5751"
         d="M 379.81736,479.60569 C 381.7578,482.19294 376.34369,473.96998 373.75644,472.02955 C 371.40183,470.26359 366.81876,473.41139 365.17015,475.06 C 361.51472,478.71543 359.5072,479.20011 365.17015,480.61584 C 368.23953,481.38319 371.8422,481.34694 374.76659,480.61584 C 376.76801,480.11549 377.50188,480.53188 379.81736,479.60569 z "
         style="fill:#4a0303;fill-opacity:1;fill-rule:evenodd;stroke:none;stroke-width:1px;stroke-linecap:butt;stroke-linejoin:miter;stroke-opacity:1" />
      <path
         inkscape:export-ydpi="90"
         inkscape:export-xdpi="90"
         inkscape:export-filename="/home/bgray/software/sidux-art/svg-fun/sidux-browser-red-WIP.jpg"
         id="path5753"
         d="M 383.35289,485.6666 C 384.03614,485.49579 390.8023,485.6666 394.46457,485.6666 C 398.26556,485.6666 400.26024,483.96515 403.55594,483.14122 C 407.41928,482.17539 407.39067,480.82172 410.12193,478.09046 C 411.24503,476.96737 407.50194,476.27539 406.08132,475.56508 C 403.65322,474.35103 411.93834,473.95257 413.15239,471.52447 C 414.83503,468.1592 409.71786,468.91827 407.59655,468.49401 C 404.6894,467.91258 401.50465,471.90559 402.04071,474.04985 C 402.54454,476.06514 397.38201,477.19333 395.47472,479.10061 C 393.06889,481.50645 389.55222,480.15936 388.90873,477.58538 C 388.19414,474.72703 383.44926,485.42568 383.35289,485.6666 z "
         style="fill:#4a0303;fill-opacity:1;fill-rule:evenodd;stroke:none;stroke-width:1px;stroke-linecap:butt;stroke-linejoin:miter;stroke-opacity:1" />
    </g>
    <path
       transform="translate(115.71429,-138.57143)"
       style="fill:none;fill-opacity:1;stroke:url(#linearGradient5798);stroke-width:5.93900013;stroke-miterlimit:4;stroke-opacity:0.70833333"
       d="M 362.85714,672.36218 C 362.85714,737.02504 310.37714,789.50504 245.71428,789.50504 C 181.05142,789.50504 128.57142,737.02504 128.57142,672.36218 C 128.57142,607.69932 181.05142,555.21932 245.71428,555.21932 C 310.37714,555.21932 362.85714,607.69932 362.85714,672.36218 z "
       id="path5755"
       inkscape:export-filename="/home/bgray/software/sidux-art/svg-fun/sidux-browser-red-WIP.jpg"
       inkscape:export-xdpi="90"
       inkscape:export-ydpi="90" />
  </g>
  <g
     inkscape:groupmode="layer"
     id="layer2"
     inkscape:label="shine"
     style="opacity:0.64285715;display:inline">
    <g
       id="g3280"
       transform="matrix(0.7104785,0.703719,-0.703719,0.7104785,481.21496,-99.159733)">
      <path
         inkscape:export-ydpi="90"
         inkscape:export-xdpi="90"
         inkscape:export-filename="/home/bgray/software/sidux-art/svg-fun/sidux-browser-red-WIP.jpg"
         transform="matrix(1.3120568,0,0,1.3404256,-119.3198,-149.75117)"
         d="M 437.39605 472.53461 A 71.215752 47.477169 0 1 1  294.96455,472.53461 A 71.215752 47.477169 0 1 1  437.39605 472.53461 z"
         sodipodi:ry="47.477169"
         sodipodi:rx="71.215752"
         sodipodi:cy="472.53461"
         sodipodi:cx="366.1803"
         id="path5801"
         style="opacity:1;fill:url(#linearGradient3285);fill-opacity:1;stroke:none;stroke-width:5.93900013;stroke-miterlimit:4;stroke-dasharray:none;stroke-opacity:0.70833333;filter:url(#filter6006)"
         sodipodi:type="arc" />
      <path
         inkscape:export-ydpi="90"
         inkscape:export-xdpi="90"
         inkscape:export-filename="/home/bgray/software/sidux-art/svg-fun/sidux-browser-red-WIP.jpg"
         sodipodi:nodetypes="cssscsc"
         id="path5817"
         d="M 264.0134,549.80775 C 263.77783,552.01301 263.64134,554.24413 263.64134,556.49794 C 263.64134,599.36644 307.13766,634.15944 360.72191,634.15942 C 414.30615,634.15942 457.80248,599.36644 457.80248,556.49794 C 457.80248,554.24413 457.66598,552.01301 457.43042,549.80775 C 453.18546,589.54786 411.48897,607.64704 360.72191,607.64704 C 309.95485,607.64706 268.25837,589.54786 264.0134,549.80775 z "
         style="opacity:0.21348314;fill:#ffffff;fill-opacity:1;stroke:none;stroke-width:5.93900013;stroke-miterlimit:4;stroke-opacity:0.70833333;filter:url(#filter6341)" />
      <path
         inkscape:export-ydpi="90"
         inkscape:export-xdpi="90"
         inkscape:export-filename="/home/bgray/software/sidux-art/svg-fun/sidux-browser-red-WIP.jpg"
         id="path6227"
         d="M 361.625,566.46875 C 324.13428,566.46875 291.17734,583.75232 272.3125,609.78125 C 293.80388,634.95632 325.76719,650.93751 361.4375,650.9375 C 397.22193,650.9375 429.25715,634.84587 450.75,609.53125 C 431.85523,583.64369 398.99401,566.46876 361.625,566.46875 z "
         style="opacity:0.88202245;fill:url(#radialGradient3287);fill-opacity:1;stroke:none;stroke-width:5.93900013;stroke-miterlimit:4;stroke-opacity:0.70833333;filter:url(#filter6311)" />
    </g>
    <path
       style="opacity:1;fill:#e9bcbc;fill-opacity:1;fill-rule:evenodd;stroke:none;stroke-width:1px;stroke-linecap:butt;stroke-linejoin:miter;stroke-opacity:1"
       d="M 311.12698,630.11842 C 315.14096,630.30261 322.43227,630.74136 325.26912,625.06766 C 328.8616,617.88271 327.01262,625.98076 328.29958,631.12857 C 329.17483,634.62958 341.71017,634.15903 344.46202,634.15903 C 351.12741,634.15903 357.07039,635.16918 363.65492,635.16918 C 367.98512,635.16918 374.98077,632.03164 378.8072,630.11842 C 383.50653,627.76876 393.27625,632.30218 396.98995,634.15903 C 402.8857,637.1069 396.44068,642.12503 393.95949,642.74533 C 388.35861,644.14555 377.2932,647.41697 371.23106,647.79609 C 365.55797,648.15088 356.36666,647.29101 350.52293,647.29101 C 345.24495,647.29101 340.14266,645.95863 335.37064,644.76563 C 328.18782,642.96992 325.43808,641.31458 319.2082,638.19964 C 314.07529,635.63319 313.72937,636.62438 311.12698,630.11842 z "
       id="path5960"
       sodipodi:nodetypes="csssssssssssc"
       inkscape:export-filename="/home/bgray/software/sidux-art/svg-fun/sidux-browser-red-WIP.jpg"
       inkscape:export-xdpi="90"
       inkscape:export-ydpi="90" />
  </g>
  <g
     inkscape:groupmode="layer"
     id="layer4"
     inkscape:label="gears"
     style="display:inline">
    <g
       id="Layer_1_2_"
       transform="matrix(7.1341495,0,0,7.1341495,-81.087046,202.49077)"
       inkscape:export-filename="/home/bgray/software/sidux-art/svg-fun/sidux-browser-red-WIP.jpg"
       inkscape:export-xdpi="90"
       inkscape:export-ydpi="90">
      <g
         id="g1354">
        <g
           id="g1356">
          <g
             id="g1358">
            <linearGradient
               id="XMLID_1_"
               gradientUnits="userSpaceOnUse"
               x1="44.188"
               y1="31.8633"
               x2="88.184196"
               y2="82.144897">
              <stop
                 offset="0"
                 style="stop-color:rgb(255,255,255)"
                 id="stop1362" />
              <stop
                 offset="1"
                 style="stop-color:rgb(199,197,210)"
                 id="stop1364" />
              <a:midPointStop
                 offset="0"
                 style="stop-color:#FFFFFF"
                 id="midPointStop1366" />
              <a:midPointStop
                 offset="0.5"
                 style="stop-color:#FFFFFF"
                 id="midPointStop1368" />
              <a:midPointStop
                 offset="1"
                 style="stop-color:#C7C5D2"
                 id="midPointStop1370" />
            </linearGradient>
            <linearGradient
               id="XMLID_2_"
               gradientUnits="userSpaceOnUse"
               x1="52.832001"
               y1="43.212898"
               x2="117.737"
               y2="105.622">
              <stop
                 offset="0"
                 style="stop-color:rgb(255,255,255)"
                 id="stop1377" />
              <stop
                 offset="1"
                 style="stop-color:rgb(214,214,230)"
                 id="stop1379" />
              <a:midPointStop
                 offset="0"
                 style="stop-color:#FFFFFF"
                 id="midPointStop1381" />
              <a:midPointStop
                 offset="0.5"
                 style="stop-color:#FFFFFF"
                 id="midPointStop1383" />
              <a:midPointStop
                 offset="1"
                 style="stop-color:#D6D6E6"
                 id="midPointStop1385" />
            </linearGradient>
          </g>
          <g
             id="g1391">
            <linearGradient
               id="XMLID_3_"
               gradientUnits="userSpaceOnUse"
               x1="81.681602"
               y1="9.0361004"
               x2="122.464"
               y2="9.0361004">
              <stop
                 offset="0"
                 style="stop-color:rgb(184,187,218)"
                 id="stop1395" />
              <stop
                 offset="1"
                 style="stop-color:rgb(13,45,125)"
                 id="stop1397" />
              <a:midPointStop
                 offset="0"
                 style="stop-color:#B8BBDA"
                 id="midPointStop1399" />
              <a:midPointStop
                 offset="0.5"
                 style="stop-color:#B8BBDA"
                 id="midPointStop1401" />
              <a:midPointStop
                 offset="1"
                 style="stop-color:#0D2D7D"
                 id="midPointStop1403" />
            </linearGradient>
            <linearGradient
               id="XMLID_4_"
               gradientUnits="userSpaceOnUse"
               x1="1.7285"
               y1="9.0361004"
               x2="111.565"
               y2="9.0361004">
              <stop
                 offset="0"
                 style="stop-color:rgb(184,187,218)"
                 id="stop1410" />
              <stop
                 offset="1"
                 style="stop-color:rgb(76,98,171)"
                 id="stop1412" />
              <a:midPointStop
                 offset="0"
                 style="stop-color:#B8BBDA"
                 id="midPointStop1414" />
              <a:midPointStop
                 offset="0.5"
                 style="stop-color:#B8BBDA"
                 id="midPointStop1416" />
              <a:midPointStop
                 offset="1"
                 style="stop-color:#4C62AB"
                 id="midPointStop1418" />
            </linearGradient>
          </g>
          <linearGradient
             id="XMLID_5_"
             gradientUnits="userSpaceOnUse"
             x1="181.66499"
             y1="116.894"
             x2="75.383202"
             y2="58.114799">
            <stop
               offset="0"
               style="stop-color:rgb(0,0,0)"
               id="stop1426" />
            <stop
               offset="1"
               style="stop-color:rgb(13,45,125)"
               id="stop1428" />
            <a:midPointStop
               offset="0"
               style="stop-color:#000000"
               id="midPointStop1430" />
            <a:midPointStop
               offset="0.5"
               style="stop-color:#000000"
               id="midPointStop1432" />
            <a:midPointStop
               offset="1"
               style="stop-color:#0D2D7D"
               id="midPointStop1434" />
          </linearGradient>
        </g>
        <linearGradient
           id="XMLID_6_"
           gradientUnits="userSpaceOnUse"
           x1="71.348602"
           y1="74.834999"
           x2="44.765301"
           y2="33.394901">
          <stop
             offset="0"
             style="stop-color:rgb(255,255,255)"
             id="stop1442" />
          <stop
             offset="1"
             style="stop-color:rgb(199,197,210)"
             id="stop1444" />
          <a:midPointStop
             offset="0"
             style="stop-color:#FFFFFF"
             id="midPointStop1446" />
          <a:midPointStop
             offset="0.5"
             style="stop-color:#FFFFFF"
             id="midPointStop1448" />
          <a:midPointStop
             offset="1"
             style="stop-color:#C7C5D2"
             id="midPointStop1450" />
        </linearGradient>
      </g>
      <g
         id="g1458">
        <path
           style="opacity:0.15;fill:#000030"
           d="M 291.5625,403.03125 C 291.35296,403.03461 291.14707,403.03575 290.9375,403.0625 L 251.40625,407.96875 C 249.20893,408.247 247.4586,409.99732 247.1875,412.1875 C 247.18751,412.18748 243.085,445.58256 242.5,450.3125 C 240.79493,451.06871 239.80082,451.50976 238.28125,452.1875 C 234.65711,450.37542 205.78125,436.0625 205.78125,436.0625 C 203.79797,435.07084 201.38573,435.53509 199.9375,437.21875 L 177.46875,463.1875 C 176.83381,463.92943 176.63113,464.80387 176.53125,465.78125 L 171.84375,508.59375 C 171.82948,508.76499 171.84375,508.89128 171.84375,509.0625 C 171.84376,510.41085 172.23695,511.6422 173.25,512.5625 C 173.25001,512.5625 179.92543,518.59262 186.125,524.25 C 174.45353,524.56389 158.5,524.96875 158.5,524.96875 C 156.15288,525.03295 154.20046,526.86177 153.84375,529.1875 L 147.5,571.75 C 147.46434,571.98544 147.28125,572.22619 147.28125,572.46875 C 147.28125,572.63284 147.25985,572.77341 147.28125,572.9375 L 152.1875,618.78125 C 152.42292,621.05703 154.13046,623.01457 156.40625,623.25 C 156.40625,623.25001 192.64234,626.95238 197.34375,627.4375 C 199.03455,630.86902 205.4732,643.57954 207.65625,648.03125 C 204.60282,650.87067 199.21875,655.75 199.21875,655.75 C 198.56239,656.35644 198.05506,657.23052 197.8125,658.09375 L 186.8125,696.71875 C 186.6841,697.15395 186.8125,697.67555 186.8125,698.125 C 186.81251,699.28073 187.21525,700.49036 188,701.375 L 225.4375,743.75 C 227.08548,745.61198 229.73817,745.9 231.75,744.4375 C 231.74999,744.43749 261.1546,723.14244 265.65625,719.875 C 270.24351,722.69298 301.38058,741.85735 305.21875,744.21875 C 305.26869,749.03428 305.6875,793.34375 305.6875,793.34375 C 305.70888,795.62666 307.41613,797.58893 309.65625,798.03125 L 357.15625,807.625 C 358.98258,807.98884 360.94957,807.22677 362.0625,805.75 L 389.6875,769.25 C 390.16547,768.60792 390.24658,767.71241 390.375,766.90625 C 390.37499,766.90625 391.07738,763.12104 391.5625,759.875 C 396.52075,759.7109 406.46418,759.53467 410.03125,759.40625 C 412.67089,763.46561 434.125,796.375 434.125,796.375 C 435.48762,798.47955 438.25003,799.20839 440.46875,798.03125 L 476.03125,779.0625 C 476.56631,778.76996 477.05226,778.36997 477.4375,777.90625 C 477.43749,777.90622 507.71795,742.35509 508.53125,741.40625 C 509.40874,740.79275 510.08521,739.85409 510.40625,738.8125 C 510.55607,738.34167 510.65625,737.89137 510.65625,737.40625 C 510.65629,736.62149 510.30848,735.7929 509.9375,735.09375 C 509.93751,735.09374 505.71186,727.24668 501.53125,719.40625 C 503.17922,720.27662 506.21875,721.75 506.21875,721.75 C 508.13067,722.74875 510.32146,722.37488 511.8125,720.8125 L 546.21875,684.78125 C 546.9322,684.04642 547.48232,683.19342 547.625,682.1875 L 552.75,643.59375 C 552.77855,643.37259 552.75,643.12028 552.75,642.90625 C 552.75717,641.37238 552.13332,639.83369 550.90625,638.90625 C 550.90628,638.90627 521.83979,617.23098 518.59375,614.8125 C 518.50814,613.30722 518.44634,612.64659 518.375,611.3125 C 520.51521,608.68715 541.53125,582.75 541.53125,582.75 C 542.2447,581.87248 542.71875,580.81741 542.71875,579.71875 C 542.71877,578.99107 542.58531,578.30988 542.25,577.625 L 524.9375,542.5 C 524.28114,541.17307 523.10448,540.2514 521.65625,539.9375 C 521.65626,539.93746 497.84622,534.75722 494.75,534.09375 C 493.87761,532.93861 489.85714,527.51835 485.5,521.65625 C 483.35169,522.38319 481.12654,523.01185 478.8125,523.46875 C 480.84584,562.9327 467.44621,598.4375 460.09375,598.4375 L 456.125,595.875 C 451.65827,604.45148 445.76215,611.05274 439.75,616.21875 C 441.6042,625.86232 442.00444,635.44558 440.6875,644.53125 C 433.42497,649.08288 425.05906,652.58905 415.65625,654.59375 C 386.02101,660.90032 350.04843,652.67668 319.5,632.84375 C 296.16647,617.69235 278.75549,597.73164 268.71875,576.90625 C 263.85592,570.96687 222.60401,517.61568 266.375,467.40625 L 266.375,467.15625 L 263.34375,465.3125 C 263.34376,465.31251 281.09834,440.25187 315.28125,426.46875 C 314.529,426.32742 312.33712,425.81376 312,425.75 C 310.03099,423.2673 295.375,404.6875 295.375,404.6875 C 294.45736,403.53265 293.02927,403.00775 291.5625,403.03125 z M 351.0625,407.5 C 350.41955,407.50089 349.7939,407.70835 349.1875,407.96875 C 347.98181,408.47529 347.09585,409.33543 346.625,410.5625 C 346.62499,410.56251 344.83729,415.50331 343.59375,418.75 C 354.15337,417.28979 365.84716,417.10282 378.4375,418.75 L 352.9375,407.96875 C 352.33467,407.71193 351.70546,407.49911 351.0625,407.5 z "
           transform="matrix(0.1401709,0,0,0.1401709,11.366042,-28.383309)"
           id="path1460" />
        <g
           id="g1462">
          <path
             d="M 45.936,27.94 L 45.233,26.783 L 44.282,32.5 L 47.689,30.98 L 45.936,27.94 z "
             style="fill:#ffffff"
             id="path1464" />
          <path
             d="M 85.14,50.286 L 82.531,50.264 L 81.42,50.308 L 81.646,54.354 L 85.14,50.286 z "
             style="fill:#ffffff"
             id="path1466" />
          <path
             d="M 38.56,42.962 L 39.772,37.613 L 36.078,34.799 L 35.265,34.352 L 34.427,40.249 L 37.467,43.023 L 38.56,42.962 z "
             style="fill:#ffffff"
             id="path1468" />
          <path
             d="M 39.6,59.891 L 42.767,56.869 L 39.487,50.521 L 32.926,49.88 L 32.218,43.364 L 32.13,43.361 L 31.005,49.145 L 31.67,55.573 L 37.786,56.202 L 39.6,59.891 z "
             style="fill:#ffffff"
             id="path1470" />
          <path
             d="M 84.592,63.482 L 80.635,61.503 L 77.141,65.853 L 78.351,68.12 L 80.929,69.476 L 85.687,64.113 L 84.592,63.482 z "
             style="fill:#ffffff"
             id="path1472" />
        </g>
        <linearGradient
           id="linearGradient20096"
           gradientUnits="userSpaceOnUse"
           x1="60.747101"
           y1="22.0518"
           x2="60.747101"
           y2="50.533401">
          <stop
             offset="0"
             style="stop-color:rgb(0,0,159)"
             id="stop20098" />
          <stop
             offset="1"
             style="stop-color:rgb(88,232,255)"
             id="stop20100" />
          <a:midPointStop
             offset="0"
             style="stop-color:#00009F"
             id="midPointStop1481" />
          <a:midPointStop
             offset="0.5"
             style="stop-color:#00009F"
             id="midPointStop1483" />
          <a:midPointStop
             offset="1"
             style="stop-color:#58E8FF"
             id="midPointStop1485" />
        </linearGradient>
        <linearGradient
           id="linearGradient20102"
           gradientUnits="userSpaceOnUse"
           x1="58.744099"
           y1="50.875"
           x2="58.744099"
           y2="71.221497">
          <stop
             offset="0"
             style="stop-color:rgb(0,111,255)"
             id="stop20104" />
          <stop
             offset="1"
             style="stop-color:rgb(0,225,255)"
             id="stop20106" />
          <a:midPointStop
             offset="0"
             style="stop-color:#006FFF"
             id="midPointStop1496" />
          <a:midPointStop
             offset="0.5"
             style="stop-color:#006FFF"
             id="midPointStop1498" />
          <a:midPointStop
             offset="1"
             style="stop-color:#00E1FF"
             id="midPointStop1500" />
        </linearGradient>
        <path
           style="fill:url(#linearGradient19951)"
           d="M 45.46875,29.8125 L 40.1875,30.5 L 39.5,35.96875 L 38.34375,36.46875 L 33.71875,34.15625 L 30.71875,37.625 L 30.125,43.34375 L 33,45.96875 L 27.71875,46.125 L 26.84375,51.8125 L 27.5,57.9375 L 33.3125,58.53125 L 35.03125,62.0625 L 33.5625,63.4375 L 32.125,68.59375 L 37.125,74.25 L 42,70.71875 L 47.9375,74.375 L 48,81.3125 L 54.375,82.5625 L 58.03125,77.71875 L 58.25,76.21875 L 61.625,76.125 L 65.0625,81.375 L 69.8125,78.84375 L 74,73.90625 L 74.0625,73.84375 L 71.96875,69.90625 L 74.4375,71.1875 L 79,66.375 L 79.71875,61.21875 L 75.15625,57.8125 L 75.09375,56.78125 L 78.34375,52.78125 L 76.03125,48.09375 L 72.25,47.28125 L 72.1875,47.1875 C 72.610716,52.660621 70.763849,57.71875 69.75,57.71875 L 69.375,57.46875 C 69.148844,58.106393 68.876375,58.73287 68.5,59.3125 C 65.00124,64.70166 56.190961,65.207327 48.84375,60.4375 C 41.496539,55.667671 38.376237,47.421364 41.875,42.03125 C 42.365464,41.275713 42.976192,40.624835 43.65625,40.0625 L 43.46875,39.9375 C 43.468751,39.937499 48.680797,32.435367 58.75,33.71875 L 58.71875,32.6875 L 53.40625,30.4375 L 52.1875,33.625 L 47.84375,32.8125 L 45.46875,29.8125 z M 70.1875,40.34375 C 70.262616,40.47174 70.304586,40.620033 70.375,40.75 L 70.46875,40.625 L 70.1875,40.34375 z "
           transform="matrix(1.0495139,0,0,1.0495139,2.820338,-5.2407814)"
           id="path1503" />
        <linearGradient
           id="linearGradient20109"
           gradientUnits="userSpaceOnUse"
           x1="59.347198"
           y1="65.0439"
           x2="59.347198"
           y2="31.6506">
          <stop
             offset="0"
             style="stop-color:rgb(0,149,255)"
             id="stop20111" />
          <stop
             offset="1"
             style="stop-color:rgb(0,225,255)"
             id="stop20113" />
          <a:midPointStop
             offset="0"
             style="stop-color:#0095FF"
             id="midPointStop1511" />
          <a:midPointStop
             offset="0.5"
             style="stop-color:#0095FF"
             id="midPointStop1513" />
          <a:midPointStop
             offset="1"
             style="stop-color:#00E1FF"
             id="midPointStop1515" />
        </linearGradient>
        <linearGradient
           id="linearGradient20116"
           gradientUnits="userSpaceOnUse"
           x1="37.875999"
           y1="25.1777"
           x2="71.260002"
           y2="58.562099">
          <stop
             offset="0"
             style="stop-color:rgb(0,61,199)"
             id="stop20118" />
          <stop
             offset="1"
             style="stop-color:rgb(109,205,255)"
             id="stop20120" />
          <a:midPointStop
             offset="0"
             style="stop-color:#003DC7"
             id="midPointStop1526" />
          <a:midPointStop
             offset="0.5"
             style="stop-color:#003DC7"
             id="midPointStop1528" />
          <a:midPointStop
             offset="1"
             style="stop-color:#6DCDFF"
             id="midPointStop1530" />
        </linearGradient>
        <path
           style="fill:url(#linearGradient19958);fill-opacity:1.0"
           d="M 45.375,29.1875 L 40.09375,29.84375 C 39.800281,29.88091 39.56841,30.111828 39.53125,30.40625 C 39.531249,30.406251 38.984381,34.899529 38.90625,35.53125 C 38.678526,35.632248 38.546701,35.691685 38.34375,35.78125 C 37.859717,35.540184 34,33.59375 34,33.59375 C 33.735114,33.461308 33.412173,33.525134 33.21875,33.75 L 30.25,37.21875 C 30.164245,37.317843 30.10709,37.431963 30.09375,37.5625 L 29.46875,43.28125 C 29.466844,43.30412 29.46875,43.319929 29.46875,43.34375 C 29.468751,43.523834 29.553152,43.689586 29.6875,43.8125 C 29.687499,43.812502 30.578248,44.619412 31.40625,45.375 C 29.847434,45.416924 27.6875,45.5 27.6875,45.5 C 27.374021,45.507624 27.140438,45.721583 27.09375,46.03125 L 26.21875,51.71875 C 26.213986,51.750195 26.21875,51.780104 26.21875,51.8125 C 26.218751,51.834414 26.215892,51.853085 26.21875,51.875 L 26.84375,58 C 26.875192,58.30395 27.132597,58.562307 27.4375,58.59375 C 27.4375,58.59375 32.27834,59.090505 32.90625,59.15625 C 33.131116,59.614557 33.958436,61.311689 34.25,61.90625 C 33.841238,62.285471 33.125,62.96875 33.125,62.96875 C 33.038291,63.048787 32.968943,63.134709 32.9375,63.25 L 31.5,68.4375 C 31.483803,68.495623 31.46875,68.535628 31.46875,68.59375 C 31.468751,68.75001 31.52019,68.911194 31.625,69.03125 L 36.625,74.6875 C 36.8451,74.93714 37.230351,74.974673 37.5,74.78125 C 37.500001,74.781248 41.429066,71.936393 42.03125,71.5 C 42.643914,71.876363 46.799882,74.433663 47.3125,74.75 C 47.318218,75.392202 47.375,81.3125 47.375,81.3125 C 47.376906,81.618357 47.574861,81.878425 47.875,81.9375 L 54.25,83.21875 C 54.493921,83.267345 54.756657,83.16789 54.90625,82.96875 L 58.5625,78.09375 C 58.627293,78.007044 58.670349,77.920169 58.6875,77.8125 C 58.687501,77.812497 58.748661,77.308534 58.8125,76.875 C 59.474711,76.852129 60.804839,76.798401 61.28125,76.78125 C 61.633793,77.324355 64.5,81.71875 64.5,81.71875 C 64.681986,81.998878 65.047422,82.094716 65.34375,81.9375 L 70.09375,79.40625 C 70.164256,79.369088 70.228845,79.343183 70.28125,79.28125 C 70.281254,79.281247 74.328878,74.502678 74.4375,74.375 C 74.555649,74.294013 74.644623,74.201612 74.6875,74.0625 C 74.707507,73.999615 74.71875,73.908542 74.71875,73.84375 C 74.718752,73.738939 74.705797,73.656829 74.65625,73.5625 C 74.656251,73.562503 74.089604,72.484651 73.53125,71.4375 C 73.752301,71.553743 74.125,71.78125 74.125,71.78125 C 74.380359,71.914644 74.708063,71.833668 74.90625,71.625 L 79.5,66.8125 C 79.595284,66.713407 79.637194,66.603098 79.65625,66.46875 L 80.375,61.3125 C 80.378808,61.282964 80.375,61.247335 80.375,61.21875 C 80.375,61.015799 80.256683,60.810414 80.09375,60.6875 C 80.093752,60.687498 76.214784,57.82396 75.78125,57.5 C 75.769814,57.299906 75.790778,57.178178 75.78125,57 C 76.067095,56.64936 78.875,53.1875 78.875,53.1875 C 78.970283,53.070303 79,52.927032 79,52.78125 C 79.000001,52.684061 78.982283,52.590518 78.9375,52.5 L 76.625,47.8125 C 76.538292,47.635275 76.37997,47.510674 76.1875,47.46875 C 76.187499,47.468751 73.038525,46.807362 72.625,46.71875 C 72.543607,46.611401 72.016099,45.92276 71.625,45.40625 C 71.774598,46.224925 71.86353,47.034379 71.90625,47.84375 C 71.970327,47.884721 72.017524,47.889576 72.09375,47.90625 C 72.093753,47.90625 75.076368,48.545723 75.59375,48.65625 C 75.816712,49.111697 77.304092,52.128953 77.59375,52.71875 C 77.150688,53.262813 74.59375,56.375 74.59375,56.375 C 74.50037,56.49029 74.46875,56.63261 74.46875,56.78125 C 74.468746,56.793637 74.467797,56.800113 74.46875,56.8125 L 74.53125,57.84375 C 74.541735,58.034316 74.627846,58.229411 74.78125,58.34375 C 74.781252,58.343751 78.500528,61.103626 79.03125,61.5 C 78.947404,62.119335 78.453891,65.741206 78.40625,66.09375 C 78.154706,66.356729 74.839604,69.821217 74.28125,70.40625 C 73.695264,70.098487 72.25,69.34375 72.25,69.34375 C 71.998452,69.210351 71.701045,69.235502 71.5,69.4375 C 71.377083,69.561366 71.3125,69.739506 71.3125,69.90625 C 71.312504,70.009151 71.35575,70.122515 71.40625,70.21875 C 71.406247,70.218749 72.923942,73.080166 73.28125,73.75 C 72.895354,74.205452 69.520782,78.173195 69.375,78.34375 C 69.190154,78.442842 66.087337,80.101527 65.28125,80.53125 C 64.751481,79.716584 62.15625,75.78125 62.15625,75.78125 C 62.033337,75.591638 61.820522,75.463033 61.59375,75.46875 L 58.25,75.59375 C 57.938429,75.605184 57.670735,75.816286 57.625,76.125 C 57.625001,76.125003 57.47466,77.180238 57.4375,77.4375 C 57.261228,77.669035 54.507275,81.326174 54.09375,81.875 C 53.455361,81.747322 49.466149,80.942277 48.65625,80.78125 C 48.647674,79.883694 48.59375,74.375 48.59375,74.375 C 48.591844,74.152995 48.470862,73.959994 48.28125,73.84375 L 42.34375,70.1875 C 42.121744,70.049343 41.836526,70.034096 41.625,70.1875 C 41.624998,70.187502 37.992442,72.815693 37.21875,73.375 C 36.591792,72.6661 33.203157,68.878657 32.8125,68.4375 C 32.973528,67.866759 34.039246,64.084247 34.125,63.78125 C 34.34415,63.576393 35.46875,62.53125 35.46875,62.53125 C 35.603098,62.405479 35.6875,62.237819 35.6875,62.0625 C 35.687499,61.965314 35.669783,61.872721 35.625,61.78125 L 33.90625,58.25 C 33.80811,58.050861 33.596055,57.928165 33.375,57.90625 C 33.374998,57.906249 28.928615,57.433315 28.0625,57.34375 C 27.972934,56.482398 27.515245,51.988579 27.5,51.84375 C 27.521914,51.699874 28.149761,47.61421 28.28125,46.75 C 29.153081,46.72618 33.03125,46.625 33.03125,46.625 C 33.29423,46.618331 33.533529,46.465531 33.625,46.21875 C 33.65168,46.145382 33.65625,46.076226 33.65625,46 C 33.656249,45.821821 33.573754,45.623867 33.4375,45.5 C 33.437501,45.500001 31.188105,43.465351 30.78125,43.09375 C 30.841278,42.536351 31.30659,38.256889 31.34375,37.90625 C 31.55623,37.660422 33.380485,35.542349 33.875,34.96875 C 34.607721,35.334634 38.03125,37.0625 38.03125,37.0625 C 38.204665,37.149208 38.418431,37.140631 38.59375,37.0625 L 39.78125,36.5625 C 39.988014,36.470076 40.128618,36.257069 40.15625,36.03125 C 40.156249,36.031249 40.648048,31.887644 40.75,31.0625 C 41.5094,30.968171 44.625335,30.569556 45.1875,30.5 C 45.557194,30.965929 47.34375,33.21875 47.34375,33.21875 C 47.439986,33.340711 47.566298,33.407963 47.71875,33.4375 L 52.0625,34.25 C 52.275582,34.194722 52.466892,34.109996 52.6875,34.0625 C 52.736466,34.006551 52.78463,33.947653 52.8125,33.875 C 52.812502,33.874999 53.472536,32.08829 53.78125,31.28125 C 54.665468,31.655709 57.518245,32.88203 58.09375,33.125 C 58.099235,33.319228 58.116387,33.506433 58.125,33.8125 C 58.546854,33.858279 58.966985,33.92208 59.40625,34 C 59.389191,33.397992 59.375,32.65625 59.375,32.65625 C 59.36833,32.403752 59.201239,32.191891 58.96875,32.09375 L 53.6875,29.84375 C 53.52552,29.775147 53.317277,29.775147 53.15625,29.84375 C 52.995224,29.912354 52.875386,30.054865 52.8125,30.21875 C 52.812498,30.218749 52.055663,32.192586 51.78125,32.90625 C 51.014228,32.762374 48.587492,32.288306 48.21875,32.21875 C 47.955771,31.887166 45.96875,29.4375 45.96875,29.4375 C 45.82392,29.260275 45.59796,29.158915 45.375,29.1875 z M 66.5,36.375 C 66.436206,36.384692 66.372528,36.408201 66.3125,36.4375 C 66.3125,36.4375 66.171881,36.523619 66.15625,36.53125 C 68.200698,37.903756 69.594206,39.716061 70.5,41.6875 C 70.68278,41.443886 71,41.03125 71,41.03125 C 71.085757,40.915958 71.125,40.760301 71.125,40.625 C 71.125002,40.450632 71.042504,40.282975 70.90625,40.15625 L 67.03125,36.5625 C 66.884756,36.425294 66.691383,36.345924 66.5,36.375 z "
           transform="matrix(1.0495139,0,0,1.0495139,2.820338,-5.2407814)"
           id="path1548" />
        <path
           style="fill:url(#linearGradient19977)"
           d="M 44.25,38.84375 C 43.088634,39.57664 42.100793,40.521314 41.34375,41.6875 C 37.657281,47.365366 40.86599,56.01217 48.5,60.96875 C 52.862021,63.799586 58.025754,64.943101 62.3125,64.03125 C 65.254814,63.406197 67.578196,61.894429 69.03125,59.65625 C 69.480046,58.965054 69.810318,58.21652 70.0625,57.4375 C 69.988518,57.51831 69.913732,57.611005 69.84375,57.65625 C 69.826742,57.667246 69.797966,57.678687 69.78125,57.6875 C 69.658515,57.800464 69.541126,57.875 69.4375,57.875 L 68.957246,57.740145 C 68.753059,58.279219 68.253599,58.482811 67.9375,58.96875 C 66.675965,60.91346 64.631501,62.22766 62.03125,62.78125 C 58.073228,63.622592 53.298734,62.524798 49.21875,59.875 C 42.18216,55.30717 39.139783,47.48765 42.4375,42.40625 C 42.878152,41.727452 43.153958,40.754979 43.761504,40.243406 L 43.1875,40.09375 C 43.1875,40.09375 43.274928,39.987634 43.3125,39.9375 C 43.3125,39.9375 43.393086,39.861997 43.40625,39.84375 C 43.473515,39.757463 43.547351,39.661241 43.65625,39.53125 C 43.666391,39.518854 43.676879,39.481623 43.6875,39.46875 C 43.849219,39.277409 44.009706,39.095434 44.25,38.84375 z "
           transform="matrix(1.0495139,0,0,1.0495139,2.820338,-5.2407814)"
           id="path1533"
           sodipodi:nodetypes="ccccscsccccccccccsssc" />
        <linearGradient
           id="linearGradient20123"
           gradientUnits="userSpaceOnUse"
           x1="85.369102"
           y1="81.132797"
           x2="29.4235"
           y2="25.187099">
          <stop
             offset="0"
             style="stop-color:rgb(0,61,199)"
             id="stop20125" />
          <stop
             offset="1"
             style="stop-color:rgb(109,205,255)"
             id="stop20127" />
          <a:midPointStop
             offset="0"
             style="stop-color:#003DC7"
             id="midPointStop1541" />
          <a:midPointStop
             offset="0.5"
             style="stop-color:#003DC7"
             id="midPointStop1543" />
          <a:midPointStop
             offset="1"
             style="stop-color:#6DCDFF"
             id="midPointStop1545" />
        </linearGradient>
        <path
           style="fill:url(#linearGradient19944)"
           d="M 45.59375,30.1875 L 40.65625,30.875 L 42.90625,34.8125 L 38.5625,36.75 L 34.03125,34.46875 L 31.28125,37.8125 L 35.5,41.03125 L 34.375,46.0625 L 28.40625,46.375 L 29.0625,52.53125 L 35.21875,53.15625 L 38.3125,59.09375 L 33.96875,63.25 L 39.25,68.9375 L 44.40625,65.375 L 50.6875,69.0625 L 50.75,76.03125 L 57.96875,77.34375 L 58.90625,71 L 65.125,70.8125 L 68.75,76.09375 L 73.75,73.53125 L 70.5625,67.53125 L 73.84375,63.4375 L 78.65625,65.84375 L 79.3125,61.09375 L 74.84375,57.75 L 74.5625,52.9375 L 77.96875,52.8125 L 75.71875,48.1875 L 71.96875,47.375 L 71.6875,47.03125 C 72.260113,52.681941 70.164643,57.029566 69.3125,58.03125 L 69,57.717102 C 68.800166,58.203575 68.399031,58.578002 68.106902,59.027953 C 64.664356,64.333265 56.170372,65.039257 48.9375,60.34375 C 41.703675,55.647289 38.989265,47.748301 42.0625,42.21875 C 42.515916,41.402936 42.531232,40.814884 43.070707,40.324004 L 41.647972,42.444166 C 41.647972,42.444166 48.372657,32.540808 58.6875,34.0625 L 58.65625,33 L 53.4375,30.78125 L 52.21875,33.9375 L 47.9375,33.125 L 45.59375,30.1875 z M 69.3125,40 C 69.562278,40.371304 69.792959,40.734975 70,41.125 L 70.21875,40.84375 L 69.3125,40 z "
           transform="matrix(1.0495139,0,0,1.0495139,2.820338,-5.2407814)"
           id="path1518"
           sodipodi:nodetypes="ccccccccccccccccccccccccccccccccccccscccccccccccc" />
      </g>
    </g>
  </g>
</svg>
