/* XPM */
static char *sidux-browser-16[] = {
/* columns rows colors chars-per-pixel */
"16 16 148 2",
"   c black",
".  c gray2",
"X  c #060606",
"o  c gray5",
"O  c #0E0E0E",
"+  c #101010",
"@  c gray8",
"#  c #161616",
"$  c gray11",
"%  c #1E1E1E",
"&  c gray15",
"*  c #272727",
"=  c gray16",
"-  c #2A2A2A",
";  c #313131",
":  c #323232",
">  c gray20",
",  c #343434",
"<  c #373737",
"1  c #393939",
"2  c #3A3A3A",
"3  c gray24",
"4  c #3E3E3E",
"5  c #067D70",
"6  c #354F58",
"7  c gray25",
"8  c #414141",
"9  c #434343",
"0  c #444444",
"q  c gray27",
"w  c #464646",
"e  c #484848",
"r  c #4C4C4C",
"t  c gray30",
"y  c gray31",
"u  c #505050",
"i  c gray34",
"p  c #5A5A5A",
"a  c #646464",
"s  c #656565",
"d  c #676767",
"f  c #6A6A6A",
"g  c gray42",
"h  c #727272",
"j  c gray45",
"k  c gray46",
"l  c gray48",
"z  c #0458AD",
"x  c #0757B7",
"c  c #0B5EB5",
"v  c #0B5ABA",
"b  c #067089",
"n  c #0E64B3",
"m  c #2D5C9E",
"M  c #244BB5",
"N  c #0B55C1",
"B  c #0B56C1",
"V  c #0E54CB",
"C  c #0F55CA",
"Z  c #1157CE",
"A  c #125FC4",
"S  c #1256D1",
"D  c #1651DE",
"F  c #1852E6",
"G  c #1C54EC",
"H  c #4B6FE4",
"J  c #08B525",
"K  c #08B426",
"L  c #0BBF2D",
"P  c #0C9866",
"I  c #10AB5E",
"U  c #12BF58",
"Y  c #13A775",
"T  c #13A27C",
"R  c #13B06B",
"E  c #17BD6E",
"W  c #0BC02E",
"Q  c #0FC33D",
"!  c #0FC936",
"~  c #0FC141",
"^  c #12C84D",
"/  c #16CE5B",
"(  c #12D142",
")  c #16DB4C",
"_  c #17C565",
"`  c #19E05A",
"'  c #19E258",
"]  c #0D8386",
"[  c #139E81",
"{  c #179D92",
"}  c #188FA1",
"|  c #1B9AA3",
" . c #1AA39A",
".. c #7890C6",
"X. c #7C90DC",
"o. c #808080",
"O. c gray51",
"+. c #848484",
"@. c gray54",
"#. c #909090",
"$. c #939393",
"%. c #9F9F9F",
"&. c #9A9DA7",
"*. c #9DA0A8",
"=. c #A0A0A0",
"-. c #A2A2A2",
";. c gray64",
":. c #ACACAC",
">. c gray68",
",. c #AFAFAF",
"<. c gray69",
"1. c gray70",
"2. c #B4B4B4",
"3. c gray71",
"4. c #B6B6B6",
"5. c #B7B7B7",
"6. c #B9B9B9",
"7. c gray73",
"8. c #BBBBBB",
"9. c gray74",
"0. c gray",
"q. c #95A0C9",
"w. c #B6C3DD",
"e. c #C0C0C0",
"r. c gray76",
"t. c gray77",
"y. c #C5C5C5",
"u. c gray78",
"i. c #C8C8C8",
"p. c #CBCBCB",
"a. c gray80",
"s. c #CDCDCD",
"d. c #CECECE",
"f. c gray81",
"g. c #D0D0D0",
"h. c #D2D2D2",
"j. c LightGray",
"k. c gray83",
"l. c #D8D8D8",
"z. c #DDDDDD",
"x. c #DBDFE5",
"c. c #E1E1E1",
"v. c gray89",
"b. c #E7E7E7",
"n. c gray92",
"m. c #ECECEC",
"M. c gray100",
"N. c None",
/* pixels */
"N.N.9 u @.:.8.8.,.-.@.k 9 < N.N.",
"N.: d p.f.f.f.9.8.4.4.u.d : N.N.",
"@ < r.f.f.f.8.4.4.4.9.u.g : N.N.",
". q u.p.p.:.r 9 9 r +.-.a : N.N.",
"  r r.u.4.%.i 2 = # o : 2 : N.N.",
"  4 8.8.4.4.4.9.4.-.o.9 : N.N.N.",
"  * o.4.4.4.8.9.9.r.r.4.p : N.N.",
"    2 g :.8.9.9.8.8.q.X...6 N.N.",
"N.* + . $ : e j &.H G | ` `  .N.",
"9 q @.i 4 < : = M F } _ E / ) { ",
". 4 f.j.r.,.-.*.D T ^ Y U ( R [ ",
"  4 f.z.v.b.v.w.C ~ ! ! Q I S A ",
"  2 4.l.b.m.n.x.V n P W W ] V V ",
"  o $ = 9 d k l m N c K K v N N ",
"N.N.N.N.N.N.: : x x x 5 b x x N.",
"N.N.N.N.N.N.N.N.N.N.z z z z N.N."
};
