/* XPM */
static char *sidux-browser-16[] = {
/* columns rows colors chars-per-pixel */
"16 16 175 2",
"   c black",
".  c gray2",
"X  c #060606",
"o  c gray5",
"O  c #0E0E0E",
"+  c #101010",
"@  c gray8",
"#  c #161616",
"$  c gray11",
"%  c #1E1E1E",
"&  c gray15",
"*  c #272727",
"=  c gray16",
"-  c #313131",
";  c #323232",
":  c gray20",
">  c #373737",
",  c #393939",
"<  c #3A3A3A",
"1  c gray24",
"2  c #3E3E3E",
"3  c #1A1F6B",
"4  c #182578",
"5  c #1E2C79",
"6  c #383B5D",
"7  c #202C78",
"8  c #242B7A",
"9  c #2B307A",
"0  c #2B337F",
"q  c gray25",
"w  c #434343",
"e  c #444444",
"r  c gray27",
"t  c #464646",
"y  c #4C4C4C",
"u  c gray30",
"i  c gray31",
"p  c #505050",
"a  c gray34",
"s  c #646464",
"d  c #656565",
"f  c #676767",
"g  c #6A6A6A",
"h  c gray42",
"j  c #686A7F",
"k  c #727272",
"l  c #1D2187",
"z  c #2C3D84",
"x  c #2D3F87",
"c  c #2D3E92",
"v  c #2A4991",
"b  c #2B529A",
"n  c #29539E",
"m  c #35418A",
"M  c #37488A",
"N  c #364293",
"B  c #354595",
"V  c #304C9A",
"C  c #3E4691",
"Z  c #3358A1",
"A  c #305EA7",
"S  c #355DA7",
"D  c #3E5FA4",
"F  c #2D64AB",
"G  c #2E6BB1",
"H  c #2F70B2",
"J  c #2E71B5",
"K  c #3A67AB",
"L  c #3B6FB0",
"P  c #3570AF",
"I  c #3772B3",
"U  c #327BBC",
"Y  c #464A81",
"T  c #495385",
"R  c #475091",
"E  c #545A9C",
"W  c #4563A7",
"Q  c #4565A5",
"!  c #4469AE",
"~  c #4B63A5",
"^  c #4578B3",
"/  c #4E77B4",
"(  c #4E79B8",
")  c #5665A4",
"_  c #516FAD",
"`  c #5C7BB9",
"'  c #686C9D",
"]  c #6A6EA8",
"[  c #6473AC",
"{  c #6F73AE",
"}  c #6578B6",
"|  c #697BB4",
" . c #797CB4",
".. c #3681BF",
"X. c #3F80C0",
"o. c #3D91CA",
"O. c #6385BC",
"+. c #6583BC",
"@. c #7D8ABE",
"#. c #4983C0",
"$. c #4A8DC6",
"%. c #499CD0",
"&. c #538CC5",
"*. c #578FC7",
"=. c #5BA1D3",
"-. c #6693C7",
";. c #7C94C6",
":. c #67ACDA",
">. c #7AAED7",
",. c #7BB2DB",
"<. c #7EBDE0",
"1. c #808080",
"2. c #848484",
"3. c gray54",
"4. c #909090",
"5. c #939393",
"6. c #9F9F9F",
"7. c #8085B2",
"8. c #8186B8",
"9. c #8487B8",
"0. c #9FA1B0",
"q. c #A0A0A0",
"w. c #A2A2A2",
"e. c #ACACAC",
"r. c gray68",
"t. c #AFAFAF",
"y. c gray69",
"u. c #B4B4B4",
"i. c gray71",
"p. c #B6B6B6",
"a. c #B7B7B7",
"s. c #B7B8BC",
"d. c gray73",
"f. c #BBBBBB",
"g. c gray74",
"h. c gray",
"j. c #80A4D0",
"k. c #8DADD6",
"l. c #99A1CA",
"z. c #9CAED4",
"x. c #9FB8DB",
"c. c #A0A3C1",
"v. c #A1BEE1",
"b. c #89C6E8",
"n. c #9ACBE9",
"m. c #B5C1DE",
"M. c #A6D7F2",
"N. c #A5DBF2",
"B. c #ADDCF3",
"V. c #BCC4E0",
"C. c #BCD0EA",
"Z. c #B2D7F0",
"A. c gray76",
"S. c gray77",
"D. c #C5C5C5",
"F. c gray78",
"G. c #C8C8C8",
"H. c #CBCBCB",
"J. c gray80",
"K. c #CDCDCD",
"L. c #CECECE",
"P. c gray81",
"I. c #D0D0D0",
"U. c #D2D2D2",
"Y. c LightGray",
"T. c gray83",
"R. c #D8D8D8",
"E. c #DDDDDD",
"W. c #C8D4EA",
"Q. c #CEECFB",
"!. c #E1E1E1",
"~. c #E7E7E7",
"^. c #E8E8EA",
"/. c gray100",
"(. c None",
/* pixels */
"(.(.w p 3.e.f.f.t.w.3.k w ; (.(.",
"(.; f H.I.I.P.g.f.p.p.F.h ; (.(.",
"@ > A.P.P.H.f.p.p.p.g.F.h ; (.(.",
". r F.H.H.e.y w w y 2.w.f ; (.(.",
"  y A.F.p.6.a < = # O - < ; (.(.",
"  2 f.f.p.p.p.s.@.9.{ E R 9 (.(.",
"  * 1.p.p.p.0.9.v.9.| | [ ) 8 (.",
"    < h e.f.] l.W.9.` D V ~ x l ",
"(.* + X @ 6 7.v.W.n.( A n Z W z ",
"w t 3.a , j c z.x.k.-.G F K O.z ",
". 2 K.U.h.] v +.j.*.$.U G L / z ",
"  1 U.E.E.c.B Q #.,.:.$.X.I b 5 ",
"  < a.R.~.~.C Z &.Z.M.b.=.H v 3 ",
"  O $ = r s ' Q X.n.Q.B.%.H 5 (.",
"(.(.(.(.(.(.; T _ >.N.<.^ M (.(.",
"(.(.(.(.(.(.(.(.(.(.4 (.(.(.(.(."
};
