/* XPM */
static char *sidux-browser[] = {
/* columns rows colors chars-per-pixel */
"32 32 251 2",
"   c black",
".  c #0E0E0E",
"X  c #131313",
"o  c #1B1B1B",
"O  c #1F1F27",
"+  c #242424",
"@  c #2C2C2C",
"#  c #323232",
"$  c #3B3B3B",
"%  c #0C186E",
"&  c #0E1274",
"*  c #111C72",
"=  c #191C77",
"-  c #0C217E",
";  c #1B2678",
":  c #1D2977",
">  c #113D71",
",  c #202873",
"<  c #272E7E",
"1  c #282F7F",
"2  c #2D326E",
"3  c #12417C",
"4  c #434343",
"5  c #4B4B4B",
"6  c #525252",
"7  c gray35",
"8  c #646464",
"9  c #6A6A6A",
"0  c #747474",
"q  c #797979",
"w  c #003399",
"e  c #163385",
"r  c #1F3884",
"t  c #1C3890",
"y  c #272F81",
"u  c #233282",
"i  c #22348B",
"p  c #2C3E8B",
"a  c #2C3D91",
"s  c #303984",
"d  c #363E8B",
"f  c #303F92",
"g  c blue",
"h  c #004D99",
"j  c #134782",
"k  c #164F90",
"l  c #165398",
"z  c #0040BF",
"x  c #004DB3",
"c  c #1052AC",
"v  c #195CAA",
"b  c #1860AC",
"n  c #1A61B0",
"m  c #26428D",
"M  c #2D438A",
"N  c #2F488E",
"B  c #234295",
"V  c #234C9B",
"C  c #2C4595",
"Z  c #2D4A99",
"A  c #25509D",
"S  c #2B509A",
"D  c #34428A",
"F  c #3B428E",
"G  c #334193",
"H  c #314B97",
"J  c #334D9A",
"K  c #3A4E93",
"L  c #31509D",
"P  c #3C5096",
"I  c #3B539C",
"U  c #244FA0",
"Y  c #2553A1",
"T  c #265BA5",
"R  c #265DA9",
"E  c #2959A3",
"W  c #2A5EA8",
"Q  c #3155A0",
"!  c #325BA5",
"~  c #3957A0",
"^  c #3B5BA4",
"/  c #395FAA",
"(  c #2660AA",
")  c #2B63AC",
"_  c #2867B0",
"`  c #2A6BB1",
"'  c #2C71B5",
"]  c #2A76BA",
"[  c #2E7CBD",
"{  c #356BB1",
"}  c #3272B6",
"|  c #3577B8",
" . c #317CBC",
".. c #3B73B3",
"X. c #3A77B9",
"o. c #3B7EC0",
"O. c #40468E",
"+. c #434B8A",
"@. c #424D94",
"#. c #40589E",
"$. c #4E5391",
"%. c #595D84",
"&. c #585D9C",
"*. c #435DA2",
"=. c #4D57A0",
"-. c #4C5DA1",
";. c #545DA2",
":. c #4364AA",
">. c #426CAF",
",. c #496AAD",
"<. c #406EB3",
"1. c #4A6DB1",
"2. c #4671B1",
"3. c #467DBA",
"4. c #4C75B5",
"5. c #4977B9",
"6. c #4B7ABA",
"7. c #5562A5",
"8. c #526BAE",
"9. c #5E66A4",
"0. c #5D6DAC",
"q. c #5F72AD",
"w. c #5474B3",
"e. c #5C75B2",
"r. c #5B7FBB",
"t. c #62658B",
"y. c #6B6DA1",
"u. c #6071AF",
"i. c #6C75A1",
"p. c #6E73AB",
"a. c #6279B5",
"s. c #617AB8",
"d. c #6D75B0",
"f. c #687BB4",
"g. c #7176AF",
"h. c #7479AB",
"j. c #7479B2",
"k. c #2C81C2",
"l. c #3384C3",
"z. c #3789C4",
"x. c #348DC9",
"c. c #3B86C2",
"v. c #3790CB",
"b. c #5281BD",
"n. c #5985BF",
"m. c #6A82B8",
"M. c #7783B9",
"N. c #7981B8",
"B. c #4687C2",
"V. c #4A86C1",
"C. c #4C8EC5",
"Z. c #4C93CB",
"A. c #4F99CD",
"S. c #479FD5",
"D. c #499AD1",
"F. c #5389C1",
"G. c #5693CA",
"H. c #5398CD",
"J. c #569BD0",
"K. c #5CA4D5",
"L. c #6C8CC0",
"P. c #619ACE",
"I. c #6B95C9",
"U. c #6A9BCC",
"Y. c #7392C5",
"T. c #7295CA",
"R. c #749BCB",
"E. c #60A8D6",
"W. c #62ADDB",
"Q. c #6BAEDA",
"!. c #69B0DB",
"~. c #74A1CE",
"^. c #76A3D0",
"/. c #73ABD7",
"(. c #7EA6D1",
"). c #7EABD4",
"_. c #72B9E2",
"`. c #7FBDE4",
"'. c #838383",
"]. c #8C8C8C",
"[. c #939393",
"{. c #9B9B9B",
"}. c #858CBD",
"|. c #888AB6",
" X c #898FBE",
".X c #9FA1B5",
"XX c #A2A2A2",
"oX c #AAAAAA",
"OX c #A1A3B6",
"+X c #B6B6B6",
"@X c #BBBBBB",
"#X c #8594C4",
"$X c #8D94C2",
"%X c #8D9DCA",
"&X c #9296C2",
"*X c #9298C4",
"=X c #84A7D1",
"-X c #81ABD6",
";X c #89AAD4",
":X c #8EB2D7",
">X c #8CB1D8",
",X c #9DA0C1",
"<X c #9DA9CF",
"1X c #9BAFD6",
"2X c #93B2DA",
"3X c #9CB6DA",
"4X c #8BBEE3",
"5X c #9EBCE0",
"6X c #A1A7CD",
"7X c #A2B4D8",
"8X c #B0B6D7",
"9X c #B2BBDB",
"0X c #84C3E8",
"qX c #95C8E6",
"wX c #94CAE9",
"eX c #98CBE9",
"rX c #9FD0ED",
"tX c #96D0F0",
"yX c #9BD1F0",
"uX c #A4D2EF",
"iX c #A4D7F0",
"pX c #A1D8F3",
"aX c #AAD5F0",
"sX c #AEDAF2",
"dX c #B6CAE6",
"fX c #B2CBE8",
"gX c #BFCDE6",
"hX c #BAD1EB",
"jX c #B3DCF3",
"kX c #BBDEF4",
"lX c #B3E2F6",
"zX c #C3C3C3",
"xX c #CBCBCB",
"cX c #D2D2D2",
"vX c #DCDCDC",
"bX c #C0CBE3",
"nX c #C6D0E7",
"mX c #C4D4EB",
"MX c #C2D8EF",
"NX c #CBDAEE",
"BX c #D0DDEF",
"VX c #DFDFE5",
"CX c #C5E7F9",
"ZX c #C4E8F9",
"AX c #C8E7F9",
"SX c #C9EAFA",
"DX c #D9F0FC",
"FX c #E4E4E4",
"GX c #EBEBEB",
"HX c gray100",
"JX c None",
/* pixels */
"JXJXJXJXJXJX@ $ 4 7 8 9 q q q q 0 0 9 8 7 4 JXJXJXJXJXJXJXJXJXJX",
"JXJXJX+ 4 4 5 0 XX+X+X+X+X+X+X+XoXXXXX{.{.{.'.JXJXJXJXJXJXJXJXJX",
"JXJX@ 4 5 9 @XxXxXxXcXcXcXcXxX@X+X+X+X+X+X{.q   JXJXJXJXJXJXJXJX",
"JX  $ 6 +XxXxXxXcXcXcXcXxXzX+X+X+X@X+X+X@XXXq   JXJXJXJXJXJXJXJX",
"JX# 5 XXxXxXxXxXxXxXxXxXzX@X+X@X+X+X+X+X+X{.q   JXJXJXJXJXJXJXJX",
"  # q xXxXxXxXxXxXxXxXxX+X@X@X@X@X@X@X@XzX+X[.  JXJXJXJXJXJXJXJX",
"+ $ [.xXxXxXxXxXxXxXzXzXxXxXxXxXxXxXxXxXxX{.].  JXJXJXJXJXJXJXJX",
"@ $ XXxXzXxXzXxXzX@XoX{.{.{.{.{.{.{.{.[.].6 +   JXJXJXJXJXJXJXJX",
"@ 4 +XxXzXzXzX@XoX{.[.$ @ # @ @ @ @ @ @ @ + X   JXJXJXJXJXJXJXJX",
"+ 4 @XxXzXzXzX+XXX{.{.].8 5 $ $ @ o X X X .   JXJXJXJXJXJXJXJXJX",
"o 4 +XxX@XzXzX@XoX{.XX{.{.{.{.[.'.%.i.h.g.j.u.d < - JXJXJXJXJXJX",
"o $ oXxXzX@X@X+X+X+X+X@X+X+XzXOXp.6X*Xd.;.;.=.;.0.&.< JXJXJXJXJX",
"X # ].xXxX@X+X+X+X+X@X+X+X@Xh.&X8XnX#X0.*.s.7.;.0.f.u.s & JXJXJX",
"  + 7 xXxXzX+X@X@X@X@X@X@Xy.&X}.9XgX7Xe.s.s.Y.f.7.-.a.u.y JXJXJX",
"  X # '.xXxXxXzX@X@XzX@XOX}.$X}.nXnX1X8.w.*.:.Z Z C ^ m.#.: JXJX",
"JX  + # 0 @XxXxXxXxXzXzX9. XN.gXNXdX2Xr.;X1.:./ Q k Z ~ y K = JX",
"JXJX  o + 5 8 '.].].[.t.j.j.<XBXmXhX5X2XI...! Y U V Z ^ ^ *.1 JX",
"JXJXJX  X o o + + @ + 2 ;.M.%XNXhXfXfX5Xb.( ) W E Y V / 1.:.D JX",
"JX@ # # # @ + X X X X d G I #XNXMXMXhXR.I.3._ n R T Y >.L.1.K JX",
"# 4 5 5 {.q 7 6 6 6 7 F f t 8.MXY.;X>X^.^.U.] ` ` ) T 5.T.4.P % ",
"@ 6 XXoXzXcXxXzX8X+X+Xd a a ,.3X=X(.).C.P.G.o.] ` ` R 5.n.w.^ * ",
"@ 9 xXxXcXcXvXvXvXvXvX$.i k / 5.>X).C.c.l.k.o.o.] ' ) 2.6.~ K JX",
"@ 9 xXxXcXvXvXvXFXFXFX&.G C U 5.} J.Z.K.D.x.x.z.k.' X.W U m p JX",
"@ 8 xXxXvXvXFXFXFXFXFX|.i Z ! { V.o.4XaXiX_.S.x.l.c.X.T V H : JX",
"@ 8 xXxXvXvXFXFXFXGXGXFXf a U { V.Z.kXjXiXrX0XW.E.C.` ( V N * JX",
"+ 5 +X@X@XxXxXvXGXGXGXGX,XC ~ T ' G.eXjXsXpXtXrX`.[ ' A A < JXJX",
"o + $ 4 4 4 4 5 5 8 0 '.].$.! ) X.l.!.lXSXZXZXrXA. .` ) r   JXJX",
"  o o o o o o o o o o o o O +.5.X.l.D.lXDXSXlXwXK.z.| m * JXJXJX",
"JX    JXJXJXJXJXJXJXJXJXJXJXJXO.e.G.Q.jXZXlXiXwXA...M # JXJXJXJX",
"JXJXJXJXJXJXJXJXJXJXJXJXJXJXJXJX; m W F./.H.b...S e JXJXJXJXJXJX",
"JXJXJXJXJXJXJXJXJXJXJXJXJXJXJXJXJXv v k 3 3 3 l v b JXJXJXJXJXJX",
"JXJXJXJXJXJXJXJXJXJXJXJXJXJXJXJXJX  z x c c h w g JXJXJXJXJXJXJX"
};
