/* XPM */
static char *sidux-browser[] = {
/* columns rows colors chars-per-pixel */
"32 32 251 2",
"   c black",
".  c #0E0E0E",
"X  c #131313",
"o  c #1B1B1B",
"O  c #1F1F27",
"+  c gray14",
"@  c #2C2C2C",
"#  c #313131",
"$  c #3B3B3B",
"%  c #0C186E",
"&  c #0E1274",
"*  c #111C72",
"=  c #191C77",
"-  c #0C217E",
";  c #1B2678",
":  c #1D2977",
">  c #113D71",
",  c #202873",
"<  c #272E7E",
"1  c #282F7F",
"2  c #2D326E",
"3  c #12417C",
"4  c #434343",
"5  c #4B4B4B",
"6  c #535353",
"7  c #5A5A5A",
"8  c #494C73",
"9  c #646464",
"0  c #6A6A6A",
"q  c #777777",
"w  c #797979",
"e  c #003399",
"r  c #163385",
"t  c #1F3884",
"y  c #1C3890",
"u  c #272F81",
"i  c #233282",
"p  c #22348B",
"a  c #2C3E8B",
"s  c #2C3D91",
"d  c #303984",
"f  c #363E8B",
"g  c #303F92",
"h  c blue",
"j  c #004D99",
"k  c #134782",
"l  c #164F90",
"z  c #165398",
"x  c #0040BF",
"c  c #004DB3",
"v  c #1052AC",
"b  c #195CAA",
"n  c #1860AC",
"m  c #1A61B0",
"M  c #26428D",
"N  c #2D438A",
"B  c #2F488E",
"V  c #234295",
"C  c #234C9B",
"Z  c #2C4595",
"A  c #2D4A99",
"S  c #25509D",
"D  c #2B509A",
"F  c #34428A",
"G  c #3F4481",
"H  c #3B428E",
"J  c #334193",
"K  c #314B97",
"L  c #334D9A",
"P  c #3A4E93",
"I  c #31509D",
"U  c #3C5096",
"Y  c #3B539C",
"T  c #244FA0",
"R  c #2553A1",
"E  c #265BA5",
"W  c #265DA9",
"Q  c #2959A3",
"!  c #2A5EA8",
"~  c #3155A0",
"^  c #325BA5",
"/  c #3957A0",
"(  c #3B5BA4",
")  c #395FAA",
"_  c #2660AA",
"`  c #2B63AC",
"'  c #2867B0",
"]  c #2A6BB1",
"[  c #2C71B5",
"{  c #2A76BA",
"}  c #2E7CBD",
"|  c #356BB1",
" . c #3272B6",
".. c #3577B8",
"X. c #317CBC",
"o. c #3B73B3",
"O. c #3A77B9",
"+. c #3B7EC0",
"@. c #40468E",
"#. c #434B8A",
"$. c #434D94",
"%. c #40589E",
"&. c #585D9C",
"*. c #435DA2",
"=. c #4D57A0",
"-. c #4C5DA1",
";. c #545DA2",
":. c #4364AA",
">. c #426CAF",
",. c #496AAD",
"<. c #406EB3",
"1. c #4A6DB1",
"2. c #4671B1",
"3. c #467DBA",
"4. c #4C75B5",
"5. c #4977B9",
"6. c #4B7ABA",
"7. c #5562A5",
"8. c #526BAE",
"9. c #5E66A4",
"0. c #5D6DAC",
"q. c #5F72AD",
"w. c #5474B3",
"e. c #5C75B2",
"r. c #5B7FBB",
"t. c #696C92",
"y. c #69709E",
"u. c #6B6DA1",
"i. c #6071AF",
"p. c #6E73AB",
"a. c #6279B5",
"s. c #617AB8",
"d. c #6D75B0",
"f. c #687BB4",
"g. c #7176AF",
"h. c #7479AB",
"j. c #7479B2",
"k. c #2C81C2",
"l. c #3384C3",
"z. c #3789C4",
"x. c #348DC9",
"c. c #3B86C2",
"v. c #3790CB",
"b. c #5281BD",
"n. c #5985BF",
"m. c #6A82B8",
"M. c #7783B9",
"N. c #7981B8",
"B. c #4687C2",
"V. c #4A86C1",
"C. c #4C8EC5",
"Z. c #4C93CB",
"A. c #4F99CD",
"S. c #479FD5",
"D. c #499AD1",
"F. c #5389C1",
"G. c #5693CA",
"H. c #5398CD",
"J. c #569BD0",
"K. c #5CA4D5",
"L. c #6C8CC0",
"P. c #619ACE",
"I. c #6B95C9",
"U. c #6A9BCC",
"Y. c #7392C5",
"T. c #7295CA",
"R. c #749BCB",
"E. c #60A8D6",
"W. c #62ADDB",
"Q. c #6BAEDA",
"!. c #69B0DB",
"~. c #74A1CE",
"^. c #76A3D0",
"/. c #73ABD7",
"(. c #7EA6D1",
"). c #7EABD4",
"_. c #72B9E2",
"`. c #7FBDE4",
"'. c #848484",
"]. c gray55",
"[. c #939393",
"{. c #9B9B9B",
"}. c #858CBD",
"|. c #888AB6",
" X c #898FBE",
".X c #999CBD",
"XX c #9FA1B5",
"oX c #A5A5A5",
"OX c #ABABAB",
"+X c #A0A2B5",
"@X c #B6B6B6",
"#X c #BBBBBB",
"$X c #8594C4",
"%X c #8D94C2",
"&X c #8D9DCA",
"*X c #9296C2",
"=X c #9298C4",
"-X c #84A7D1",
";X c #81ABD6",
":X c #89AAD4",
">X c #8EB2D7",
",X c #8CB1D8",
"<X c #9DA9CF",
"1X c #9BAFD6",
"2X c #93B2DA",
"3X c #9CB6DA",
"4X c #8BBEE3",
"5X c #9EBCE0",
"6X c #A1A7CD",
"7X c #A2B4D8",
"8X c #B0B6D7",
"9X c #B2BBDB",
"0X c #84C3E8",
"qX c #95C8E6",
"wX c #94CAE9",
"eX c #98CBE9",
"rX c #9FD0ED",
"tX c #96D0F0",
"yX c #9BD1F0",
"uX c #A4D2EF",
"iX c #A4D7F0",
"pX c #A1D8F3",
"aX c #AAD5F0",
"sX c #AEDAF2",
"dX c #B6CAE6",
"fX c #B2CBE8",
"gX c #BFCDE6",
"hX c #BAD1EB",
"jX c #B3DCF3",
"kX c #BBDEF4",
"lX c #B3E2F6",
"zX c #C3C3C3",
"xX c #CBCBCB",
"cX c #D3D3D3",
"vX c #DCDCDC",
"bX c #C0CBE3",
"nX c #C6D0E7",
"mX c #C4D4EB",
"MX c #C2D8EF",
"NX c #CBDAEE",
"BX c #D0DDEF",
"VX c #DFDFE5",
"CX c #C5E7F9",
"ZX c #C4E8F9",
"AX c #C8E7F9",
"SX c #C9EAFA",
"DX c #D9F0FC",
"FX c #E4E4E4",
"GX c #EAEAEA",
"HX c gray100",
"JX c None",
/* pixels */
"JXJXJXJXJXJX@ $ 4 5 5 5 5 6 6 5 5 5 5 6 5 4 JXJXJXJXJXJXJXJXJXJX",
"JXJXJX+ 4 4 5 5 5 4 6 7 7 7 7 7 7 7 6 6 6 4 # JXJXJXJXJXJXJXJXJX",
"JXJX@ 4 4 w @XzXxXcXcXcXcXcXzX@X@X@X@X@X@X6 #   JXJXJXJXJXJXJXJX",
"JX  $ 7 zXxXcXxXcXcXcXcXcXzX@X@X@X@X@X@X@X7 @   JXJXJXJXJXJXJXJX",
"JX# 4 @XxXxXcXxXxXcXxXxXzX@X@X@X@X@X@X@X@X9 @   JXJXJXJXJXJXJXJX",
"  $ ].xXxXxXxXcXxXxXxXzX@X@X@X@X@X#X@X#XzX0 @   JXJXJXJXJXJXJXJX",
"+ $ OXxXxXxXxXxXxXxXzX@X@X@X@X@X@X#XxXcXcX0 @   JXJXJXJXJXJXJXJX",
"@ $ @XzXzXxXzXzXzXOXoXoXoXoXoXoXoXOXOXOXoX6 +   JXJXJXJXJXJXJXJX",
"@ 4 #XzXzXzXzX@X7 # # @ @ # # @ @ @ @ @ @ + X   JXJXJXJXJXJXJXJX",
"+ 4 #XzX#XzXzXOX5 $ $ $ $ $ $ $ @ o X X X .   JXJXJXJXJXJXJXJXJX",
"o 4 @XzXzXzXzX#X].7 7 6 7 6 7 6 6 8 u.h.p.j.u.H < * JXJXJXJXJXJX",
"o $ @X@X#X#X@X@X@X@X@X@X@X@XzX+Xg.1X=Xd.;.;.=.;.0.&.u JXJXJXJXJX",
"X # {.@X@X@X@X@X@X@X@X@X@XzXh.*X8XnX$X0./ a.8.;.0.f.i.d & JXJXJX",
"  + 7 @X@X@X@X@X@X@X#X@X@Xu.*X}.8XbX7Xe.a.e.Y.f.7.-.a.e.i JXJXJX",
"  X $ ].@X#X#X#XzX#XzX#X+X}.%X}.mXnX1X8.w.:.:.A L V ( f.%., JXJX",
"JX  o $ '.#XzXzXzXzXzXzX9. XN.gXNXdX2Xr.:X2.:.) ~ V L Y p P * JX",
"JXJX  o @ 5 0 ].{.{.{.t.j.j.1XBXmXhX5X2XI.<.^ R T A D ( ( *.< JX",
"JXJXJX  X o o + + @ @ 2 ;.M.&XBXgXfXfX5Xb.` ` ! E R V ) 1.,.F JX",
"JX@ # # @ @ + X X X X f J L $XBXMXMXhXR.U.3.' ' W E R <.L.1.P JX",
"# 4 5 5 5 5 6 5 6 6 6 H J y ,.NXT.:X,X^.^.U.] ] ] ` E 5.T.4.U % ",
"@ 7 #XzXzXxXzXxXxXxXxXf s V ,.3X-X(.).C.P.G.{ } [ ] W 5.n.w./ * ",
"@ w xXcXcXcXcXvXvXvXvX$.p V ^ 5.,X).C.c.l.k.k.+.{ [ ` 2.6./ P JX",
"@ q cXcXcXvXvXvXFXFXFX&.g Z C 5. .P.A.K.D.x.x.z.} { O.! T M a JX",
"@ q cXvXvXvXFXFXFXFXFX|.p A ) | V.} 4XaXuX_.S.x.l.c.O.E C K : JX",
"@ q vXcXvXFXFXFXFXGXGXVXf V T | b.Z.kXjXiXrX0XW.K.C.] _ C B * JX",
"+ 7 xXcXcXvXvXvXFXFXGXFX.XZ ~ ! [ H.eXjXsXpXtXrX`.X.[ S S < JXJX",
"o + $ $ 4 4 4 4 4 5 4 5 5 G ~ ` ..l.!.lXSXZXZXrXA.X.] ` t   JXJX",
"  o o o o o o o o o o o o O #.5.O.l.D.lXDXSXlXwXK.z...M * JXJXJX",
"JX    JXJXJXJXJXJXJXJXJXJXJXJX@.e.G.Q.sXZXlXiXwXA.o.N # JXJXJXJX",
"JXJXJXJXJXJXJXJXJXJXJXJXJXJXJXJX; Z ! b./.H.b.o.D r JXJXJXJXJXJX",
"JXJXJXJXJXJXJXJXJXJXJXJXJXJXJXJXJXn b l 3 3 3 z b n JXJXJXJXJXJX",
"JXJXJXJXJXJXJXJXJXJXJXJXJXJXJXJXJX  x c v v j e h JXJXJXJXJXJXJX"
};
