/* XPM */
static char *sidux_browser[] = {
/* columns rows colors chars-per-pixel */
"32 32 256 2",
"   c #161E77",
".  c #1E257B",
"X  c #232B7E",
"o  c #21277C",
"O  c #1A2E85",
"+  c #1F3890",
"@  c #252F88",
"#  c #2C3485",
"$  c #263A8E",
"%  c #2B368A",
"&  c #3A3F8E",
"*  c #1E4799",
"=  c #37438F",
"-  c #224296",
";  c #224598",
":  c #244C9C",
">  c #2B4896",
",  c #334492",
"<  c #3A4292",
"1  c #354897",
"2  c #3D4B95",
"3  c #374A98",
"4  c #2E519E",
"5  c #33519D",
"6  c #3D549E",
"7  c #204FA0",
"8  c #2555A3",
"9  c #2C55A2",
"0  c #265BA6",
"q  c #245DA9",
"w  c #2C5BA5",
"e  c #3C54A1",
"r  c #365CA6",
"t  c #3B5CA5",
"y  c #365EA9",
"u  c #3F5FA8",
"i  c #3156A4",
"p  c #2762AD",
"a  c #2B69AF",
"s  c #2C65AD",
"d  c #3760A5",
"f  c #3D60A7",
"g  c #3664AC",
"h  c #3D65AC",
"j  c #346AAD",
"k  c #3A6AAF",
"l  c #2667B0",
"z  c #2C6EB3",
"x  c #3C6CB0",
"c  c #3169B0",
"v  c #2A72B7",
"b  c #2B75BA",
"n  c #2C7ABC",
"m  c #3272B6",
"M  c #3E72B4",
"N  c #347DBE",
"B  c #3776B9",
"V  c #43539C",
"C  c #4C549C",
"Z  c #4A599A",
"A  c #585C9F",
"S  c #50569C",
"D  c #435AA2",
"F  c #4A5CA3",
"G  c #4659A3",
"H  c #555DA1",
"J  c #585BA1",
"K  c #4363A9",
"L  c #4966AB",
"P  c #4E6BAF",
"I  c #4469AF",
"U  c #5462A5",
"Y  c #5B64A5",
"T  c #5367AA",
"R  c #5D6BAC",
"E  c #506AAE",
"W  c #4C6EB4",
"Q  c #516EB2",
"!  c #4D73B5",
"~  c #4171B3",
"^  c #5175B4",
"/  c #5979B7",
"(  c #547CBB",
")  c #5B71B0",
"_  c #636BAA",
"`  c #696EAA",
"'  c #6371AF",
"]  c #6A74AF",
"[  c #6A71A4",
"{  c #6273B1",
"}  c #667BB6",
"|  c #6C7BB4",
" . c #6A7EB9",
".. c #677DB9",
"X. c #737BB4",
"o. c #787EB5",
"O. c #2D7FC0",
"+. c #5E87BF",
"@. c #5582BD",
"#. c #6483B5",
"$. c #6483BA",
"%. c #6B83BB",
"&. c #7780B4",
"*. c #7584BA",
"=. c #7C85BA",
"-. c #7A89BE",
";. c #798BB6",
":. c #2C80C1",
">. c #3185C3",
",. c #338CC9",
"<. c #3389C7",
"1. c #3392CC",
"2. c #3E93CC",
"3. c #3897D0",
"4. c #339BD4",
"5. c #389DD4",
"6. c #37A2D8",
"7. c #3FB6E4",
"8. c #4A8BC5",
"9. c #4788C3",
"0. c #5684C1",
"q. c #5A84C3",
"w. c #538CC4",
"e. c #4391C9",
"r. c #4199CF",
"t. c #569CCF",
"y. c #5D99CD",
"u. c #5B96CB",
"i. c #419DD3",
"p. c #4D9FD3",
"a. c #519DD1",
"s. c #628DC4",
"d. c #6D8AC2",
"f. c #718DC3",
"g. c #798FC3",
"h. c #6595C7",
"j. c #639DCE",
"k. c #6C9DCC",
"l. c #6793C8",
"z. c #7597C9",
"x. c #719DCD",
"c. c #7C96C4",
"v. c #4EAFDD",
"b. c #5EB5DF",
"n. c #67A0CF",
"m. c #78A3CF",
"M. c #63A6D5",
"N. c #79A7D3",
"B. c #7DA9D3",
"V. c #76A7D2",
"C. c #7CBADF",
"Z. c #47B7E6",
"A. c #4AB6E3",
"S. c #5DBFE7",
"D. c #69BCE4",
"F. c #7ABBE0",
"G. c #65C0E7",
"H. c #75CDEF",
"J. c #7FC2E5",
"K. c #868CBB",
"L. c #898EBF",
"P. c #8D91BD",
"I. c #8991B7",
"U. c #94A5BF",
"Y. c #8592C2",
"T. c #8B92C1",
"R. c #839BCA",
"E. c #8A9CC8",
"W. c #969BC5",
"Q. c #989CC6",
"!. c #8FA7CD",
"~. c #83A2CE",
"^. c #9CA3C3",
"/. c #9FA7CF",
"(. c #9EAACE",
"). c #92A4C7",
"_. c #8CADD6",
"`. c #8BADD9",
"'. c #87A5D1",
"]. c #99ACD3",
"[. c #83B3DB",
"{. c #8CB4DA",
"}. c #84BBDC",
"|. c #8CB6DA",
" X c #97B9DC",
".X c #A7AACA",
"XX c #A3A7C8",
"oX c #AFB5CF",
"OX c #ACB7C5",
"+X c #A0ACD2",
"@X c #A4B4D5",
"#X c #ACB3D4",
"$X c #ABBCDC",
"%X c #A2BBDB",
"&X c #B5BEDC",
"*X c #9EBBE0",
"=X c #A3BFE2",
"-X c #BDC2C9",
";X c #ACC0DD",
":X c #BFC7DE",
">X c #BDCFDD",
",X c #A4C2E3",
"<X c #A9C3E3",
"1X c #AFCBE8",
"2X c #A7CBE6",
"3X c #B5C5E2",
"4X c #B3CBE5",
"5X c #BCCCE5",
"6X c #B9CEE9",
"7X c #B6CBE5",
"8X c #A6D6E9",
"9X c #BBD3EB",
"0X c #BED8EF",
"qX c #B9D7E8",
"wX c #B9DEF1",
"eX c #BDE1F3",
"rX c #C7C9CC",
"tX c #C5C9DE",
"yX c #C0C3D1",
"uX c #CFD1D6",
"iX c #D5D5D5",
"pX c #DCDCDC",
"aX c #D4D7DA",
"sX c #C2CDE5",
"dX c #C9CCE1",
"fX c #C4D1E6",
"gX c #C3D4EB",
"hX c #C9D6EC",
"jX c #C7DFEF",
"kX c #CDDAED",
"lX c #CED7E6",
"zX c #D2DDED",
"xX c #DBDFEC",
"cX c #DBDDE2",
"vX c #C5DDF0",
"bX c #D2DFF0",
"nX c #DDE3ED",
"mX c #DEE3E5",
"MX c #C3E1F1",
"NX c #CCE3F2",
"BX c #D3E3F1",
"VX c #DCE5F2",
"CX c #DBE9F4",
"ZX c #E3E3E3",
"AX c #EAEAEA",
"SX c #E5E6F0",
"DX c #E5ECF5",
"FX c #EAEDF5",
"GX c #E3F0F7",
"HX c #EEF1F7",
"JX c #EDF3F9",
"KX c #F4F4F4",
"LX c #F3F6FA",
"PX c #FDFDFE",
"IX c #F5F8FB",
"UX c None",
/* pixels */
"UXUXUXUXUXUXUXUXUXUXUXUXUXUX@ o . o UXUXUXUXUXUXUXUXUXUXUXUXUXUX",
"UXUXUXUXUXUXUXUXUXUX% _ =.L.T.K.L.Y.Y V # . UXUXUXUXUXUXUXUXUXUX",
"UXUXUXUXUXUXUXUX# J T.#XL.X.] _ J F C J Y ' V . UXUXUXUXUXUXUXUX",
"UXUXUXUXUXUXUXA T.#X&X/.X._ U 3 G R F U H ' %.R # UXUXUXUXUXUXUX",
"UXUXUXUXUXUX` Q.W.5XsX/.Y.' e D d.d.G U U ) } } } 2 UXUXUXUXUXUX",
"UXUXUXUXUX_ Q.L.T.sXsX&XE.T E e D f.f.*.| F e G ..} 2 UXUXUXUXUX",
"UXUXUXUXF XXK.=.+XhX5X3X=XR.%.R.L '.P 6 t D G G %.g.V % UXUXUXUX",
"UXUXUX& T.Q.&.*.hXsXgXgX%.- W t u / 9 > e > - 5 D %.) 6 . UXUXUX",
"UXUXUX` =.T.| @XbXkX6X<Xl.y `.z.K $.K : L 4 - - f L $ $ C   UXUX",
"UXUX& o.o.-./.VXhX6X6X4X*X].`.`.( 9 8 y r * * ; 9 t + O 6 < UXUX",
"UXUXJ o.' T.fXkXhXvXgX=X=XJXPXkX~.x g 8 8 : * : i I sXSXE.1 UXUX",
"UX# < ] &.g.sXbXgX6X1X<X1X,XbXIXIXDXfXj 0 8 7 : ; sXPXLX@XL . UX",
"UX# @ ] -.*.$XkXgX6X9X1X9X{.l.'.JXPXPXDXz.0 8 8 f FXIXsXW P # UX",
"UXC lXPXPXPXJXVXgXvXvXvX1Xz.k.x.x.DXPXPXLX X0 8 R.PXzX! W L , UX",
"UXFXPXPXPXPXPXPXGX%X`.1XN.x.m.m.x.9.gXLXPXFXj q lXDXq.( ! L , UX",
"UXPXPXPXPXPXPXPXPXPXbX X'.V.V.B.N.N b {.JXJXa q ;X( q.@.^ W , UX",
"UXPXPXPXPXPXPXPXPXPXPXPXqX8.9.y.j.n n n w.7Xz p q k h.( ^ ( 2 UX",
"UXSXPXPXPXPXVXHXPXPXPXPXPXHX}.2.:.:.n N n b v a p k q.0.f ^ #XUX",
"UXtXPXPXPXfX0 q.l.VXPXPXPXPXPXPXvX}.e.>.n n b a s M w d 5 tXtXUX",
"UX.XPXPXPX@X8 @.v v y. XNXPXPXPXPXPXPXBX}.j.8.m @.! $.$XxX$XP.UX",
"UXW.PXPXPX3Xj c h.b :.<.,.2.C.2XMXJXPXPXPXPXPXPXIXBX!.K > xXI.UX",
"UXUXSXPXPXHXh ~ 0.8.:.,.1.1.4.6.4.4.i.p.a.t.n.w.s 0 t !.HXFXUXUX",
"UXUXP.PXPXPX:XM B u.e.2.1.4.6.6.6.4.4.4.1.t.u.h._.5XPXzXXXP.UXUX",
"UXUXUXFXPXPXPXPXIXDXCXjXMXMXeXeXwXwXeXNXGXLXPXPXKXfX%.c.nXUXUXUX",
"UXUXUXP.KXKXKXKXIXKXIXKXPXPXPXIXPXPXIXIXDXqX[.@.j c.zXPX&.UXUXUX",
"UXUXUXUXXXKXKXKXHXAXlXM.C.v.A.A.7.G.G.6.1.>.j.4XIXPXPXtXUXUXUXUX",
"UXUXUXUXUX.XZXAXAXAXk.<.r.D.S.H.H.A.b.}.;XCXKXKXIXIXtXUXUXUXUXUX",
"UXUXUXUXUXUXXXZXZXZX>X|.C.J.8X8XqXmXZXAXZXAXAXAXAXoXUXUXUXUXUXUX",
"UXUXUXUXUXUXUX[ yXpXpXpXpXaXpXpXpXZXpXZXZXZXZXmXI.UXUXUXUXUXUXUX",
"UXUXUXUXUXUXUXUXUX;.iXaXiXiXiXiXiXiXpXiXpXaX^.UXUXUXUXUXUXUXUXUX",
"UXUXUXUXUXUXUXUXUXUXUX#.;.U.OXrXrXrXOXU.#.UXUXUXUXUXUXUXUXUXUXUX",
"UXUXUXUXUXUXUXUXUXUXUXUXUXUXUXUXUXUXUXUXUXUXUXUXUXUXUXUXUXUXUXUX"
};
