/* XPM */
static char *sidux-browser[] = {
/* columns rows colors chars-per-pixel */
"32 32 145 2",
"   c #000000",
".  c #0A0A0A",
"X  c #141414",
"o  c #1C1C1C",
"O  c #232323",
"+  c #272A2F",
"@  c #292929",
"#  c #333333",
"$  c #32373C",
"%  c #3A3A3A",
"&  c #2C3961",
"*  c #057778",
"=  c #077C76",
"-  c #2D757F",
";  c #434343",
":  c #4A4A4A",
">  c #4E4F52",
",  c #535353",
"<  c #5C5C5C",
"1  c #626262",
"2  c #6B6B6B",
"3  c #717171",
"4  c #7D7D7D",
"5  c #0E50AB",
"6  c #0657B4",
"7  c #0558B0",
"8  c #0B54B0",
"9  c #0956BB",
"0  c #0859B7",
"q  c #1F49B9",
"w  c #06659B",
"e  c #096C9A",
"r  c #07708D",
"t  c #0B67A7",
"y  c #0B6BA0",
"u  c #0F61BA",
"i  c #0E73A0",
"p  c #1272AD",
"a  c #127BA2",
"s  c #1672BC",
"d  c #0B55C3",
"f  c #0D54CA",
"g  c #1C4DD9",
"h  c #1258CA",
"j  c #1152D3",
"k  c #1452DB",
"l  c #165FD0",
"z  c #1851DD",
"x  c #194FEB",
"c  c #1D4FF3",
"v  c #1651E0",
"b  c #1850E5",
"n  c #1B5CE1",
"m  c #1D50F2",
"M  c #1262C3",
"N  c #156BC2",
"B  c #1C6ED3",
"V  c #1875C0",
"C  c #1A78C4",
"Z  c #2053EE",
"A  c #2350F8",
"S  c #3A62EE",
"D  c #505E8A",
"F  c #517DBF",
"G  c #4066E9",
"H  c #5874E0",
"J  c #05AE1C",
"K  c #05AC20",
"L  c #07AC2D",
"P  c #07AA30",
"I  c #07B321",
"U  c #09B628",
"Y  c #09B825",
"T  c #0ABC2B",
"R  c #0AB438",
"E  c #0B9B5D",
"W  c #0B8A77",
"Q  c #0D9E63",
"!  c #0EBE40",
"~  c #0FB350",
"^  c #10BB4F",
"/  c #11B25B",
"(  c #11BD57",
")  c #12BB59",
"_  c #14AD73",
"`  c #16AF7A",
"'  c #12B364",
"]  c #14B964",
"[  c #16BA6C",
"{  c #16B473",
"}  c #18B27F",
"|  c #0CC22F",
" . c #0DC633",
".. c #10CB39",
"X. c #11D13D",
"o. c #13CD4D",
"O. c #13D543",
"+. c #15DB47",
"@. c #16D454",
"#. c #17D953",
"$. c #19D95D",
"%. c #17CB63",
"&. c #1BD566",
"*. c #1ADA65",
"=. c #17E04C",
"-. c #18E451",
";. c #1AE956",
":. c #0E8882",
">. c #108490",
",. c #13869C",
"<. c #129688",
"1. c #169C8F",
"2. c #17919C",
"3. c #1586A2",
"4. c #1A8EAD",
"5. c #1B9EA3",
"6. c #16A189",
"7. c #19AE8B",
"8. c #19B286",
"9. c #1BB68A",
"0. c #1BBE81",
"q. c #4791BF",
"w. c #7E8FD2",
"e. c #838383",
"r. c #8C8C8C",
"t. c #939393",
"y. c #9C9C9C",
"u. c #A5A5A5",
"i. c #AAAAAA",
"p. c #B5B5B5",
"a. c #BCBCBC",
"s. c #8BA5DB",
"d. c #8FA9DB",
"f. c #A7AFC9",
"g. c #A8B5D1",
"h. c #BAC8DF",
"j. c #C2C2C2",
"k. c #CCCCCC",
"l. c #D2D2D2",
"z. c #DCDCDC",
"x. c #E3E3E4",
"c. c gray92",
"v. c gray94",
"b. c gray100",
"n. c None",
/* pixels */
"n.n.n.n.n.# # % ; 1 4 r.t.y.y.y.t.t.e.4 1 ; % % # # # n.n.n.n.n.",
"n.n.n.  : : : r.a.k.k.l.l.l.l.l.j.a.p.p.p.p.p.r.1 # # n.n.n.n.n.",
"n.n.  : ; , j.l.l.l.l.l.l.l.k.p.a.p.p.p.p.p.a.k.t.% # n.n.n.n.n.",
"n.  # + ; j.l.k.l.l.l.l.l.j.p.p.p.p.p.p.p.p.a.k.y.% # n.n.n.n.n.",
"n.O O % y.l.k.l.k.l.k.l.j.p.p.p.p.p.p.p.p.p.a.k.t.% # n.n.n.n.n.",
"  . @ ; j.k.l.k.k.k.k.j.p.p.i.i.i.p.p.a.j.k.k.k.y.% # n.n.n.n.n.",
"  . # , k.k.k.k.k.k.a.u.< : ; ; ; : : 1 t.a.k.k.y.% # n.n.n.n.n.",
"    # 3 j.k.j.j.k.j.p.< # # # % # # # # % % ; 3 e.% # n.n.n.n.n.",
"    # 3 j.j.j.j.j.i.i.< @ o X .           . @ # ; % # n.n.n.n.n.",
"    # > j.j.j.j.p.i.i.i.t.3 < > : % # O o .   # # # # n.n.n.n.n.",
"    # ; p.j.j.a.p.p.p.p.p.p.p.p.u.t.e.1 : % # # n.n.n.n.n.n.n.n.",
"    # ; i.a.a.p.p.a.p.p.p.p.j.j.j.j.j.j.i.y.1 % # # n.n.n.n.n.n.",
"      # < p.p.p.p.p.p.p.p.j.j.j.j.j.j.j.j.a.j.t.: # # n.n.n.n.n.",
"      # % 4 p.a.a.a.a.a.a.p.a.p.a.a.a.a.j.a.a.l.u.; # n.n.n.n.n.",
"        # % 3 i.a.a.j.a.j.a.j.a.a.p.a.p.p.a.a.k.k.4 % # n.n.n.n.",
"n.        # % ; 2 u.p.a.j.j.j.j.j.j.a.a.w.H S A S q.- $ n.n.n.n.",
"n.n.X         # # % : < 2 e.y.i.p.j.f.S m m B 9.0.*.;.&.5.n.n.n.",
"n.n.% % @             X X o o % : D Z x n C 8.7.-.-.-.;.$.4.n.n.",
"n.  # ; , ; # O             . o & g x x s -.=.=.#.#.%.+.+.#.} n.",
"  : ; , p.y.2 , : ; ; ; ; ; % O q b b s 6.s 1.{ 2.[ ` @.+.+.` n.",
"  . @ ; k.l.l.j.i.r.1 , > : : , z z B _ o./ N s 3.O.O.O.+.O.o.s ",
"    % ; k.z.z.z.z.z.z.z.l.k.k.g.k k ( X.X.X.X.X.O.) ..' <.,.( k ",
"    # ; l.z.z.z.z.x.x.z.x.z.z.s.j M ............../ ^ ..p j a j ",
"    # ; l.z.x.z.c.x.c.c.c.x.x.d.j h R .. . . . . . .~ >.j j j j ",
"    # ; l.z.x.x.c.c.c.c.c.c.x.h.f f 9 W Q | | | | | | i f f f f ",
"    # % 3 y.a.z.c.c.v.v.c.c.c.x.h f h f f E T T T R W f f f f f ",
"    o + # # % ; : e.y.u.p.a.j.j.F d f d d e Y Y U U t d d d d n.",
"            . X o o O O @ @ @ @ + 5 9 9 d 9 L I I L e e d 9 d n.",
"n.    n.n.n.n.n.n.n.n.n.# # # # # 8 9 0 0 9 * J K r 0 0 0 0 n.n.",
"n.n.n.n.n.n.n.n.n.n.n.n.n.n.n.n.n.n.7 6 6 6 6 * w 6 6 6 6 n.n.n.",
"n.n.n.n.n.n.n.n.n.n.n.n.n.n.n.n.n.n.n.n.7 7 7 7 7 7 7 7 n.n.n.n.",
"n.n.n.n.n.n.n.n.n.n.n.n.n.n.n.n.n.n.n.n.n.n.n.n.n.n.n.n.n.n.n.n."
};
