/* XPM */
static char *sidux-browser-16[] = {
/* columns rows colors chars-per-pixel */
"16 16 173 2",
"   c gray5",
".  c gray7",
"X  c gray8",
"o  c gray9",
"O  c gray13",
"+  c #272727",
"@  c #2C2C2C",
"#  c #2D2D2D",
"$  c #2F2F2F",
"%  c #313131",
"&  c gray20",
"*  c #353535",
"=  c gray22",
"-  c gray23",
";  c #3C3C3C",
":  c #1A1F6B",
">  c #182578",
",  c #1E2C79",
"<  c #202C78",
"1  c #242B7A",
"2  c #2B307A",
"3  c #2B337F",
"4  c gray25",
"5  c #414141",
"6  c #434343",
"7  c #444444",
"8  c gray27",
"9  c #464646",
"0  c #484848",
"q  c #494949",
"w  c #4B4B4B",
"e  c #515151",
"r  c #565656",
"t  c #4E506D",
"y  c #595B70",
"u  c #606060",
"i  c #676767",
"p  c #6A6A6A",
"a  c gray42",
"s  c #6C6C6C",
"d  c #6D6D6D",
"f  c #6F6F6F",
"g  c gray47",
"h  c #1D2187",
"j  c #2C3D84",
"k  c #2D3F87",
"l  c #2D3E92",
"z  c #2A4991",
"x  c #2B529A",
"c  c #29539E",
"v  c #35418A",
"b  c #37488A",
"n  c #364293",
"m  c #354595",
"M  c #304C9A",
"N  c #3E4691",
"B  c #3358A1",
"V  c #305EA7",
"C  c #355DA7",
"Z  c #3E5FA4",
"A  c #2D64AB",
"S  c #2E6BB1",
"D  c #2F70B2",
"F  c #2E71B5",
"G  c #3A67AB",
"H  c #3B6FB0",
"J  c #3570AF",
"K  c #3772B3",
"L  c #327BBC",
"P  c #494D80",
"I  c #485194",
"U  c #4D5796",
"Y  c #545B9D",
"T  c #4562A7",
"R  c #4565A5",
"E  c #4469AE",
"W  c #4B63A5",
"Q  c #4578B3",
"!  c #4E77B4",
"~  c #4E79B8",
"^  c #5665A4",
"/  c #516FAD",
"(  c #5C7BB9",
")  c #6A6EA8",
"_  c #6473AC",
"`  c #6F72A4",
"'  c #6F73AE",
"]  c #6578B6",
"[  c #697BB4",
"{  c #797CB4",
"}  c #3681BF",
"|  c #3F80C0",
" . c #3D91CA",
".. c #6385BC",
"X. c #6583BC",
"o. c #7E82AF",
"O. c #7D8ABE",
"+. c #4983C0",
"@. c #4A8DC6",
"#. c #499CD0",
"$. c #538CC5",
"%. c #578FC7",
"&. c #5BA1D3",
"*. c #6693C7",
"=. c #7C94C6",
"-. c #67ACDA",
";. c #7AAED7",
":. c #7BB2DB",
">. c #7EBDE0",
",. c #808080",
"<. c #838383",
"1. c gray53",
"2. c #8B8B8B",
"3. c gray55",
"4. c #8D8D8D",
"5. c #909090",
"6. c #939393",
"7. c #8086B8",
"8. c #8487B8",
"9. c #9FA1B0",
"0. c #A0A0A0",
"q. c #AAAAAA",
"w. c gray67",
"e. c gray68",
"r. c #AEAEAE",
"t. c #ADADB1",
"y. c gray69",
"u. c #B2B2B2",
"i. c #B4B4B4",
"p. c #B7B7B7",
"a. c gray72",
"s. c gray73",
"d. c #BBBBBB",
"f. c gray74",
"g. c gray75",
"h. c #80A4D0",
"j. c #8DADD6",
"k. c #99A1CA",
"l. c #9CAED4",
"z. c #9FB8DB",
"x. c #A0A3C1",
"c. c #A1BEE1",
"v. c #89C6E8",
"b. c #9ACBE9",
"n. c #B5C1DE",
"m. c #A6D7F2",
"M. c #A5DBF2",
"N. c #ADDCF3",
"B. c #BCC4E0",
"V. c #BCD0EA",
"C. c #B2D7F0",
"Z. c #C1C1C1",
"A. c #C3C3C3",
"S. c gray77",
"D. c #C6C6C6",
"F. c #C8C8C8",
"G. c gray79",
"H. c #CACACA",
"J. c gray80",
"K. c #CECECE",
"L. c gray81",
"P. c gray82",
"I. c #D2D2D2",
"U. c gray84",
"Y. c gainsboro",
"T. c #DDDDDD",
"R. c #C8D4EA",
"E. c #CEECFB",
"W. c #E1E1E1",
"Q. c #E6E6E6",
"!. c #E7E7E9",
"~. c gray100",
"^. c None",
/* pixels */
"^.& 4 9 d <.2.6.1.g a p ^.^.^.^.",
"^.4 5.F.L.I.L.f.a.a.w.i ^.^.^.^.",
"$ 2.J.J.L.J.s.s.a.a.u.f ^.^.^.^.",
"& p.F.F.S.u.e.e.e.e.6.u ^.^.^.^.",
"* S.S.A.6.1.6 * % # + . ^.^.^.^.",
"$ w.A.a.e.e.w.e.{ 7.' Y I 2 ^.^.",
"o 2.S.a.a.p.9.8.n.8.[ [ _ ^ 1 ^.",
"  9 y.F.S.A.) k.R.=.( Z M W k h ",
"^.X & q r t { n.V.b.~ V c B R j ",
"; 6 s q 9 P n l.z.j.*.S A G ( j ",
"9 s.J.I.J.` l X.h.%.@.L F H ! k ",
"w J.U.T.W.x.m E +.j.-. .| K x < ",
"9 A.I.Y.Q.!.N V $.N.M.v.&.F z : ",
"O @ @ $ = e y T +.b.E.N.#.J , ^.",
"^.^.^.^.^.^.^.U / ;.M.:.Q b ^.^.",
"^.^.^.^.^.^.^.^.^.^.> ^.^.^.^.^."
};
