/* XPM */
static char *sidux-browser[] = {
/* columns rows colors chars-per-pixel */
"32 32 253 2",
"   c #000000",
".  c #0A0A0A",
"X  c #151515",
"o  c #1B1B1B",
"O  c gray14",
"+  c #29292A",
"@  c #333333",
"#  c #3A3A3A",
"$  c #0C186E",
"%  c #0E1274",
"&  c #111C72",
"*  c #191C77",
"=  c #0C217E",
"-  c #1B2678",
";  c #1D2977",
":  c #113D71",
">  c #202873",
",  c #272E7E",
"<  c #292F70",
"1  c #282F7F",
"2  c #12417C",
"3  c #434343",
"4  c #4A4A4A",
"5  c #535353",
"6  c gray36",
"7  c #464970",
"8  c #636363",
"9  c #6C6C6C",
"0  c #717171",
"q  c #7D7D7D",
"w  c #003399",
"e  c #163385",
"r  c #1F3884",
"t  c #1C3890",
"y  c #272F81",
"u  c #233282",
"i  c #22348B",
"p  c #2C3E8B",
"a  c #2C3D91",
"s  c #303984",
"d  c #363D8C",
"f  c #303F92",
"g  c blue",
"h  c #004D99",
"j  c #134782",
"k  c #164F90",
"l  c #165398",
"z  c #0040BF",
"x  c #004DB3",
"c  c #1052AC",
"v  c #195CAA",
"b  c #1860AC",
"n  c #1A61B0",
"m  c #26428D",
"M  c #2D438A",
"N  c #2F488E",
"B  c #234295",
"V  c #234C9B",
"C  c #2C4595",
"Z  c #2D4A99",
"A  c #25509D",
"S  c #2B509A",
"D  c #34428A",
"F  c #3F4484",
"G  c #3A418C",
"H  c #334193",
"J  c #314B97",
"K  c #334D9A",
"L  c #3C4290",
"P  c #3A4E93",
"I  c #31509D",
"U  c #3C5096",
"Y  c #3B539C",
"T  c #244FA0",
"R  c #2553A1",
"E  c #265BA5",
"W  c #265DA9",
"Q  c #2959A3",
"!  c #2A5EA8",
"~  c #3155A0",
"^  c #325BA5",
"/  c #3957A0",
"(  c #3B5BA4",
")  c #395FAA",
"_  c #2660AA",
"`  c #2B63AC",
"'  c #2867B0",
"]  c #2A6BB1",
"[  c #2C71B5",
"{  c #2A76BA",
"}  c #2E7CBD",
"|  c #356BB1",
" . c #3272B6",
".. c #3577B8",
"X. c #317CBC",
"o. c #3B73B3",
"O. c #3A77B9",
"+. c #3B7EC0",
"@. c #434C88",
"#. c #424D94",
"$. c #40589E",
"%. c #4F5C9F",
"&. c #565B97",
"*. c #585D9C",
"=. c #435DA2",
"-. c #4D57A0",
";. c #4A5EA3",
":. c #545DA2",
">. c #4364AA",
",. c #426CAF",
"<. c #496AAD",
"1. c #406EB3",
"2. c #4A6DB1",
"3. c #4671B1",
"4. c #467DBA",
"5. c #4C75B5",
"6. c #4977B9",
"7. c #4B7ABA",
"8. c #5562A5",
"9. c #526BAE",
"0. c #5E65A2",
"q. c #5D6DAC",
"w. c #5F72AD",
"e. c #5474B3",
"r. c #5C75B2",
"t. c #5B7FBB",
"y. c #6B6E93",
"u. c #6B6DA1",
"i. c #6071AF",
"p. c #6E73AB",
"a. c #6279B5",
"s. c #617AB8",
"d. c #6D75B0",
"f. c #687BB4",
"g. c #7074AE",
"h. c #7379A7",
"j. c #7579AB",
"k. c #7479B2",
"l. c #2C81C2",
"z. c #3384C3",
"x. c #3789C4",
"c. c #348DC9",
"v. c #3B86C2",
"b. c #3790CB",
"n. c #5281BD",
"m. c #5985BF",
"M. c #6A82B8",
"N. c #7783B9",
"B. c #7981B8",
"V. c #4687C2",
"C. c #4A86C1",
"Z. c #4C8EC5",
"A. c #4C93CB",
"S. c #4F99CD",
"D. c #479FD5",
"F. c #499AD1",
"G. c #5389C1",
"H. c #5693CA",
"J. c #5398CD",
"K. c #569BD0",
"L. c #5CA4D5",
"P. c #6C8CC0",
"I. c #619ACE",
"U. c #6B95C9",
"Y. c #6A9BCC",
"T. c #7392C5",
"R. c #7295CA",
"E. c #749BCB",
"W. c #60A8D6",
"Q. c #62ADDB",
"!. c #6BAEDA",
"~. c #69B0DB",
"^. c #74A1CE",
"/. c #76A3D0",
"(. c #73ABD7",
"). c #7EA6D1",
"_. c #7EABD4",
"`. c #72B9E2",
"'. c #7FBDE4",
"]. c #828282",
"[. c gray55",
"{. c #939393",
"}. c #9C9C9C",
"|. c #858CBD",
" X c #888AB6",
".X c #898FBE",
"XX c #9FA1B5",
"oX c #A5A5A5",
"OX c #AAAAAA",
"+X c #A2A3B7",
"@X c #B5B5B5",
"#X c #BBBBBB",
"$X c #8594C4",
"%X c #8D94C2",
"&X c #8D9DCA",
"*X c #9296C2",
"=X c #9298C4",
"-X c #84A7D1",
";X c #81ABD6",
":X c #89AAD4",
">X c #8EB2D7",
",X c #8CB1D8",
"<X c #9FA1C2",
"1X c #9DA9CF",
"2X c #9BAFD6",
"3X c #93B2DA",
"4X c #9CB6DA",
"5X c #8BBEE3",
"6X c #9EBCE0",
"7X c #A1A7CD",
"8X c #A2B4D8",
"9X c #B0B6D7",
"0X c #B2BBDB",
"qX c #84C3E8",
"wX c #95C8E6",
"eX c #94CAE9",
"rX c #98CBE9",
"tX c #9FD0ED",
"yX c #96D0F0",
"uX c #9BD1F0",
"iX c #A4D2EF",
"pX c #A4D7F0",
"aX c #A1D8F3",
"sX c #AAD5F0",
"dX c #AEDAF2",
"fX c #B6CAE6",
"gX c #B2CBE8",
"hX c #BFCDE6",
"jX c #BAD1EB",
"kX c #B3DCF3",
"lX c #BBDEF4",
"zX c #B3E2F6",
"xX c #C3C3C3",
"cX c #CCCCCC",
"vX c #D2D2D2",
"bX c #DCDCDC",
"nX c #C0CBE3",
"mX c #C6D0E7",
"MX c #C4D4EB",
"NX c #C2D8EF",
"BX c #CBDAEE",
"VX c #D0DDEF",
"CX c #DFDFE5",
"ZX c #C5E7F9",
"AX c #C4E8F9",
"SX c #C8E7F9",
"DX c #C9EAFA",
"FX c #D9F0FC",
"GX c #E3E3E3",
"HX c gray92",
"JX c gray94",
"KX c gray100",
"LX c None",
/* pixels */
"LXLXLXLXLX@ @ # 3 8 q {.{.}.oX}.{.{.].q 8 3 # @ @ @ @ LXLXLXLXLX",
"LXLXLX  4 4 4 [.xXcXcXcXvXvXvXcXxX#X@X@X@X@XOX{.8 @ @ LXLXLXLXLX",
"LXLX  4 3 5 xXvXvXvXvXvXvXvXcX@X@X@X@X@X#X@X#XcX}.@ @ LXLXLXLXLX",
"LX  @ + 3 xXvXcXvXvXvXvXcXxX@X@X@X#X@X@X@X@X#XcX}.# @ LXLXLXLXLX",
"LXO O @ }.cXvXvXcXvXcXcXxX@X@X@X@X#X@X@X@X@X#XcX}.# @ LXLXLXLXLX",
"  . + 3 xXcXcXcXcXcXcXxX@X@XOXOXOX@X@X#XxXcXcXcX}.# @ LXLXLXLXLX",
"  . @ 6 cXcXcXcXcXcXxXoX6 4 3 3 3 3 4 8 {.#XcXcX}.# @ LXLXLXLXLX",
"    @ 0 xXxXcXxXxXxX@X6 @ @ @ @ @ @ @ @ # # # q q # @ LXLXLXLXLX",
"    @ 0 xXxXxXxXxXOXoX5 + o X . .         . + @ # # @ LXLXLXLXLX",
"    @ 4 xXxXxXxXOX@X@XOX{.0 6 5 4 # + + o .   @ @ @ @ LXLXLXLXLX",
"    @ 4 #XxXxX#X@X@X@X@X@X@X@X@XoXy.j.j.g.k.0.G y & LXLXLXLXLXLX",
"    @ # OX#X#X@X@X@X@X@X@X@XxX+Xp.1X=Xg.:.:.%.:.i.%.y LXLXLXLXLX",
"      @ 6 @X@X@X@X@X@X@X@XxXj.*X9XnX%Xq.Y s.9.:.q.f.i.s % LXLXLX",
"      @ # q @X#X#X#X#X#X@Xu.*X|.0XhX8Xr.a.a.T.f.8.;.a.i.y LXLXLX",
"        @ # 0 OX#XxXxX#X+X X$X$XMXmX2X9.e.>.>.Z J B ( M.$.> LXLX",
"LX        @ @ 4 9 }.@X#Xu.$Xk.nXBXfX3Xt.:X3.>.) ~ B K Y i P * LX",
"LXLXo         @ @ # 4 7 k.B.2XVXMXjX8X3XU.o.^ R R V Z ( ( =., LX",
"LXLX@ @ O .         . < :.B.&XBXjXfXgXwXt.' ! W Q T V ) 2.<.d LX",
"LX  @ 4 5 3 @ O .     d H K $XBXNXNXjXE.U.4.' ' ! W T 1.M.2.P LX",
"  4 3 4 @X}.8 5 4 3 4 L H i <.BXR.:X>X^./.Y.[ | ] ` E 6.E.5.U $ ",
"  . + 4 cXvXvXcXOX[.8 d a B 1.4X-X)._.Z.I.H.} { [ ] W 6.G.e.=.& ",
"    @ 3 cXvXbXbXbXbXbX#.t a ( 6.,X;XZ.v.z.l.l.} { [ ` 3.7./ P LX",
"    @ 3 vXbXbXbXbXGXGX*.f C T 6. .I.A.L.F.c.b.v.} { O.! T m p LX",
"    @ 3 vXbXGXGXGXHXGX Xi Z ^ | C.} 5XsXpX`.D.c.z.v.O.Q V J - LX",
"    @ 3 vXGXGXGXHXHXHXCXd B T | C.A.lXkXpXtXqXQ.L.Z.[ E l N & LX",
"    @ # 0 }.#XbXHXJXJXJX<XC / W ] J.rXkXdXaXyXtX'.X.[ S V 1 LXLX",
"    o + @ @ # # 4 ].}.oX@X&.^ ` O.z.~.lXDXAXSXtXS.} ] ` r   LXLX",
"            . X o o O O O + @.5.+.z.D.kXFXDXzXeXL.x...m & LXLXLX",
"LX    LXLXLXLXLXLXLXLXLX@ @ @ F r.H.!.dXDXzXpXwXS.o.M @ LXLXLXLX",
"LXLXLXLXLXLXLXLXLXLXLXLXLXLXLXLX- a ! G.(.J.V.o.S e LXLXLXLXLXLX",
"LXLXLXLXLXLXLXLXLXLXLXLXLXLXLXLXLXv v k 2 : j l v v LXLXLXLXLXLX",
"LXLXLXLXLXLXLXLXLXLXLXLXLXLXLXLXLX  z x c c h w g LXLXLXLXLXLXLX"
};
