/* XPM */
static char *sidux_browser___[] = {
/* columns rows colors chars-per-pixel */
"16 16 183 2",
"   c #232D7C",
".  c #27317A",
"X  c #263481",
"o  c #223789",
"O  c #37458D",
"+  c #234596",
"@  c #264F9C",
"#  c #39519B",
"$  c #3A529C",
"%  c #2754A0",
"&  c #2558A4",
"*  c #3557A1",
"=  c #3A57A1",
"-  c #3259A4",
";  c #3F5EA3",
":  c #2E64AA",
">  c #3468AC",
",  c #3E6BAF",
"<  c #2C6CB1",
"1  c #307BBD",
"2  c #444991",
"3  c #475094",
"4  c #435498",
"5  c #4F5599",
"6  c #4D599D",
"7  c #55609B",
"8  c #455BA4",
"9  c #505CA2",
"0  c #555EA2",
"q  c #545FA3",
"w  c #4C6CAF",
"e  c #5F65A3",
"r  c #5769A8",
"t  c #5D6DAB",
"y  c #586CAC",
"u  c #4D70AE",
"i  c #5272A1",
"p  c #466FB2",
"a  c #4C6FB0",
"s  c #4E70B1",
"d  c #5A78B5",
"f  c #5E79B5",
"g  c #5E7FB6",
"h  c #646BA8",
"j  c #676AAA",
"k  c #606DAA",
"l  c #666CA8",
"z  c #7178AF",
"x  c #6576B4",
"c  c #667DB7",
"v  c #6C7FB6",
"b  c #647FB9",
"n  c #767CB4",
"m  c #5D80BA",
"M  c #718CAB",
"N  c #6C88B6",
"B  c #6185BC",
"V  c #6882BD",
"C  c #7E83B7",
"Z  c #7583BB",
"A  c #7C87BA",
"S  c #748BBF",
"D  c #7991B3",
"F  c #3281C1",
"G  c #3A85C2",
"H  c #338CC9",
"J  c #4F86C1",
"K  c #4E88C0",
"L  c #5882C1",
"P  c #5A87C0",
"I  c #5E88C1",
"U  c #5B90C6",
"Y  c #5A92C9",
"T  c #5896CB",
"R  c #5897CB",
"E  c #489ED2",
"W  c #7593C6",
"Q  c #7199C9",
"!  c #79A0CD",
"~  c #7BA6D1",
"^  c #7CA4D0",
"/  c #6FB6DF",
"(  c #78B8DF",
")  c #7DC2E5",
"_  c #8288B4",
"`  c #8087BB",
"'  c #8289BB",
"]  c #888EBF",
"[  c #8F93C0",
"{  c #9194C1",
"}  c #82A6CF",
"|  c #92A1C7",
" . c #9FA6C2",
".. c #9EA1C6",
"X. c #80ADD4",
"o. c #88A8D4",
"O. c #92AED3",
"+. c #8AB5D7",
"@. c #83BDDF",
"#. c #94BFDF",
"$. c #9BBBDE",
"%. c #9CBFDE",
"&. c #A3ABCB",
"*. c #A9ABCD",
"=. c #AAADCD",
"-. c #A6B3CB",
";. c #A8AED2",
":. c #ABB2D4",
">. c #AAB3D5",
",. c #A0BEDD",
"<. c #B4B6D3",
"1. c #B7BEDB",
"2. c #A4C1DF",
"3. c #A8C1DF",
"4. c #AEC2DD",
"5. c #AEC6DF",
"6. c #B5C4DD",
"7. c #BDC5DC",
"8. c #84C1E3",
"9. c #8CC3E4",
"0. c #88C6E7",
"q. c #96C2E2",
"w. c #9CC5E2",
"e. c #9DC9E6",
"r. c #8DD1EC",
"t. c #98D5ED",
"y. c #B6C7E1",
"u. c #B8C4E0",
"i. c #B1CAE7",
"p. c #B5C9E5",
"a. c #B9C8E1",
"s. c #BDCAE2",
"d. c #BFCAE4",
"f. c #BECCE6",
"g. c #A3D6ED",
"h. c #A9D0E9",
"j. c #ABD3E9",
"k. c #A8D7ED",
"l. c #A2D8EF",
"z. c #B2D7E8",
"x. c #BBD1EA",
"c. c #BCD3E9",
"v. c #BDD5E9",
"b. c #BFD6EB",
"n. c #BCD3ED",
"m. c #DADADB",
"M. c gray86",
"N. c #DDDDDD",
"B. c #DFDFDF",
"V. c #C7D3E7",
"C. c #C3D4E8",
"Z. c #C7D7EA",
"A. c #C0D3EC",
"S. c #C4D5EC",
"D. c #C8D6EA",
"F. c #CAD8ED",
"G. c #CED9EC",
"H. c #CDDFEC",
"J. c #D9DCE3",
"K. c #D8DFE9",
"L. c #D9DFEE",
"P. c #DFE0E1",
"I. c #DEE0EB",
"U. c #DAE5EC",
"Y. c #D2E5F2",
"T. c #DDE5F1",
"R. c #DEEBF5",
"E. c #E9E9E9",
"W. c #E4E8F2",
"Q. c #E4ECF5",
"!. c #E7EDF6",
"~. c #E8ECF4",
"^. c #EFF4F9",
"/. c #F3F3F3",
"(. c #F6F6F6",
"). c gray97",
"_. c #F0F2F8",
"`. c #F6F8FB",
"'. c #F8F9FB",
"]. c #FCFDFE",
"[. c #FDFDFE",
"{. c #FEFEFE",
"}. c None",
/* pixels */
"}.}.}.}.}.}.z l j 3 }.}.}.}.}.}.",
"}.}.}.}.` ;.n 0 9 0 t 6 }.}.}.}.",
"}.}.5 [ >.6.Z 8 V x t y r   }.}.",
"}.}.{ ` d.f.S b f = $ $ c 4 }.}.",
"}.e ' >.F.p.W o.s - * + ; o O }.",
"}.j A D.S.i.x.!.y.m % @ d L.v }.",
"2 ] 1.G.A.n.$.Q Z.^.O.& s.a.w . ",
"=.{.{.{.T.3.^ ~ U 2.!.: 4.L u X ",
"*.{.{.`.{.{.x.T G 1 Y < > I s 7 ",
"..{.W.p ! v.R.{.Y.#.R K P m | _ ",
"}.'._., J F H E ( e.q.%.} m 7.}.",
"}.<.{.Z.,.w.9.0.) 8.h.v.C.6.&.}.",
"}.}.I.(.).H.j.g.l.k.@.X.5.~.}.}.",
"}.}.}.J.E.+./ r.t.z.U./.I.}.}.}.",
"}.}.}.}. .m.M.M.N.B.P.-.}.}.}.}.",
"}.}.}.}.}.}.N D M i }.}.}.}.}.}."
};
