/* XPM */
static char *sidux-browser-16[] = {
/* columns rows colors chars-per-pixel */
"16 16 168 2",
"   c gray5",
".  c gray7",
"X  c gray8",
"o  c gray9",
"O  c gray13",
"+  c #222222",
"@  c gray15",
"#  c #272727",
"$  c #2C2C2C",
"%  c #2D2D2D",
"&  c #2F2F2F",
"*  c gray19",
"=  c #313131",
"-  c #323232",
";  c gray20",
":  c #353535",
">  c gray21",
",  c #373737",
"<  c gray22",
"1  c #3C3C3C",
"2  c #3F3F3F",
"3  c #1A1F6B",
"4  c #182578",
"5  c #1E2C79",
"6  c #3B3D54",
"7  c #202C78",
"8  c #242B7A",
"9  c #2B307A",
"0  c #2B337F",
"q  c gray25",
"w  c #414141",
"e  c #434343",
"r  c #444444",
"t  c gray27",
"y  c gray28",
"u  c #484848",
"i  c gray29",
"p  c gray30",
"a  c #4E4E4E",
"s  c gray31",
"d  c #565656",
"f  c #575976",
"g  c #646464",
"h  c #1D2187",
"j  c #2C3D84",
"k  c #2D3F87",
"l  c #2D3E92",
"z  c #2A4991",
"x  c #2B529A",
"c  c #29539E",
"v  c #35418A",
"b  c #37488A",
"n  c #364293",
"m  c #354595",
"M  c #304C9A",
"N  c #3E4691",
"B  c #3358A1",
"V  c #305EA7",
"C  c #355DA7",
"Z  c #3E5FA4",
"A  c #2D64AB",
"S  c #2E6BB1",
"D  c #2F70B2",
"F  c #2E71B5",
"G  c #3A67AB",
"H  c #3B6FB0",
"J  c #3570AF",
"K  c #3772B3",
"L  c #327BBC",
"P  c #494D80",
"I  c #485194",
"U  c #4D5796",
"Y  c #545B9D",
"T  c #4462A6",
"R  c #4565A5",
"E  c #4469AE",
"W  c #4B63A5",
"Q  c #4578B3",
"!  c #4E77B4",
"~  c #4E79B8",
"^  c #5665A4",
"/  c #516FAD",
"(  c #5C7BB9",
")  c #6A6EA8",
"_  c #6473AC",
"`  c #6F73AE",
"'  c #6578B6",
"]  c #697BB4",
"[  c #7175A7",
"{  c #7B7FAD",
"}  c #797CB4",
"|  c #3681BF",
" . c #3F80C0",
".. c #3D91CA",
"X. c #6385BC",
"o. c #6583BC",
"O. c #7F85B7",
"+. c #7D8ABE",
"@. c #4983C0",
"#. c #4A8DC6",
"$. c #499CD0",
"%. c #538CC5",
"&. c #578FC7",
"*. c #5BA1D3",
"=. c #6693C7",
"-. c #7C94C6",
";. c #67ACDA",
":. c #7AAED7",
">. c #7BB2DB",
",. c #7EBDE0",
"<. c #9A9A9A",
"1. c #9B9B9B",
"2. c #9D9D9D",
"3. c #9F9F9F",
"4. c #8487B8",
"5. c #9FA1B0",
"6. c gray64",
"7. c #A0A0A5",
"8. c #A5A5A5",
"9. c gray65",
"0. c gray69",
"q. c #B2B2B2",
"w. c gray70",
"e. c #B6B6B6",
"r. c #B7B7B7",
"t. c gray73",
"y. c #BCBCBC",
"u. c gray74",
"i. c gray",
"p. c #80A4D0",
"a. c #8DADD6",
"s. c #99A1CA",
"d. c #9CAED4",
"f. c #9FB8DB",
"g. c #A0A3C1",
"h. c #A1BEE1",
"j. c #89C6E8",
"k. c #9ACBE9",
"l. c #B5C1DE",
"z. c #A6D7F2",
"x. c #A5DBF2",
"c. c #ADDCF3",
"v. c #BCC4E0",
"b. c #BCD0EA",
"n. c #B2D7F0",
"m. c #C0C0C0",
"M. c #C1C1C1",
"N. c gray76",
"B. c gray78",
"V. c #C8C8C8",
"C. c gray79",
"Z. c gray80",
"A. c #CECECE",
"S. c gray81",
"D. c #D0D0D0",
"F. c #D2D2D2",
"G. c LightGray",
"H. c #D7D7D7",
"J. c gray85",
"K. c #DDDDDD",
"L. c #DFDFDF",
"P. c #C8D4EA",
"I. c #CEECFB",
"U. c #E1E1E1",
"Y. c gray90",
"T. c #E5E5E7",
"R. c gray100",
"E. c None",
/* pixels */
"E.; e 2 e r i i i r 2 ; E.E.E.E.",
"E.e 6.B.Z.G.G.i.e.e.3.@ E.E.E.E.",
"& 8.Z.Z.Z.Z.t.e.e.e.8.@ E.E.E.E.",
"; i.B.Z.m.w.0.0.e.m.3.O E.E.E.E.",
", m.m.i.r , , , * $ # . E.E.E.E.",
"& w.i.t.8.3.3.7.{ 4.` Y I 9 E.E.",
"o <.e.e.e.e.5.4.l.4.' ] _ ^ 8 E.",
"  p w.i.i.i.) s.P.-.( Z M W k h ",
"E.X = s g f } l.b.k.~ V c B T j ",
"1 t t t r P n d.f.a.=.S A G ' j ",
"p B.Z.D.G.[ l o.p.&.#.L F H ! k ",
"d D.H.K.U.s.m E @.>.;.#.| K c 5 ",
"p F.H.U.Y.Y.N C %.n.z.j.*.S z 3 ",
"O $ $ = * * 6 T  .k.I.c.$.J 5 E.",
"E.E.E.E.E.E.E.U / :.x.,.Q b E.E.",
"E.E.E.E.E.E.E.E.E.E.4 E.E.E.E.E."
};
