/* XPM */
static char *xdg_browser_launcher_16[] = {
/* columns rows colors chars-per-pixel */
"16 16 183 2 ",
"   c #262D79",
".  c #252E7E",
"X  c #272F80",
"o  c #23388A",
"O  c #36458C",
"+  c #254797",
"@  c #264F9D",
"#  c #39569F",
"$  c #3C559E",
"%  c #2957A3",
"&  c #265AA5",
"*  c #3559A4",
"=  c #345DA7",
"-  c #3A5BA4",
";  c #3F5EA4",
":  c #2F64AB",
">  c #3163AB",
",  c #2C6AB0",
"<  c #444991",
"1  c #485195",
"2  c #435499",
"3  c #4F5C9E",
"4  c #505698",
"5  c #545C98",
"6  c #4862A8",
"7  c #4B6BAE",
"8  c #4C6CAC",
"9  c #4E6CAD",
"0  c #5261A5",
"q  c #5664A7",
"w  c #5863A5",
"e  c #586AA9",
"r  c #596EAB",
"t  c #4174B7",
"y  c #4D73B4",
"u  c #4979B9",
"i  c #5C77B0",
"p  c #5B79B5",
"a  c #5C7AB5",
"s  c #5F7DBA",
"d  c #6167A5",
"f  c #676EA9",
"g  c #666FAA",
"h  c #6270AC",
"j  c #6070AF",
"k  c #6973AF",
"l  c #7378AF",
"z  c #667BB5",
"x  c #6C7FB1",
"c  c #6C7EB5",
"v  c #677EB8",
"b  c #317FC0",
"n  c #4E86BE",
"m  c #5983BD",
"M  c #5C84BF",
"N  c #6784BD",
"B  c #6288BE",
"V  c #7882B8",
"C  c #778ABF",
"Z  c #3C89C6",
"A  c #358CC9",
"S  c #3597D0",
"D  c #5681C0",
"F  c #5190C8",
"G  c #5A93C9",
"H  c #5D96C9",
"J  c #5897CC",
"K  c #5B9CD0",
"L  c #6987C0",
"P  c #7F8DC0",
"I  c #7690C3",
"U  c #7797CA",
"Y  c #739FCC",
"T  c #4CA6D8",
"R  c #7DA2CD",
"E  c #7CA8D3",
"W  c #7BAAD4",
"Q  c #7EAAD4",
"!  c #6FB9E1",
"~  c #79BCE1",
"^  c #7EC5E8",
"/  c #8386B2",
"(  c #8086B8",
")  c #828DBE",
"_  c #8490C0",
"`  c #8B95C3",
"'  c #889CC1",
"]  c #8898C4",
"[  c #9096C3",
"{  c #9196C3",
"}  c #919CC4",
"|  c #81A0CC",
" . c #9CA5C2",
".. c #9EA1C6",
"X. c #93A4C9",
"o. c #8AACD7",
"O. c #86B3D4",
"+. c #80B2D8",
"@. c #93B0D5",
"#. c #9CBCDC",
"$. c #A1ABC5",
"%. c #A3A7C8",
"&. c #A9ABCD",
"*. c #ABAECE",
"=. c #AAB2D4",
"-. c #ADB5D7",
";. c #AAB8D8",
":. c #AEBFDB",
">. c #B3B6D3",
",. c #9EBEE0",
"<. c #AEC1DD",
"1. c #B5C0DA",
"2. c #BDC2DA",
"3. c #B9C3DE",
"4. c #85C1E3",
"5. c #8ACBEB",
"6. c #8ECAE8",
"7. c #95C2E1",
"8. c #96C1E2",
"9. c #96CEE6",
"0. c #9DCAE6",
"q. c #9FCBE7",
"w. c #8CD5EF",
"e. c #9FD5EC",
"r. c #A5C3E0",
"t. c #A3C4E2",
"y. c #A8C5E2",
"u. c #ACCCE0",
"i. c #A9CDE7",
"p. c #BAC7E3",
"a. c #B6C9E2",
"s. c #B6CCE7",
"d. c #B9C8E1",
"f. c #BDCAE1",
"g. c #B3CCE9",
"h. c #A5D1E9",
"j. c #A9D5EA",
"k. c #A1D8ED",
"l. c #BED3E8",
"z. c #BCD3EB",
"x. c #BED7EC",
"c. c #BED6EE",
"v. c #D5D5D5",
"b. c #D7D7D7",
"n. c #D6D7D8",
"m. c #D4D7DE",
"M. c #DADADA",
"N. c #DADBDD",
"B. c #C0CCE6",
"V. c #C3D1E6",
"C. c #C0D1E8",
"Z. c #C7D5E8",
"A. c #C0D6ED",
"S. c #C0DAED",
"D. c #C5D8ED",
"F. c #C8D9EB",
"G. c #C9DCE9",
"H. c #C9D8EC",
"J. c #CCDAEE",
"K. c #D3D8E3",
"L. c #D5DEE5",
"P. c #D9DCE6",
"I. c #D0DBEE",
"U. c #D9DFEE",
"Y. c #D3E7F4",
"T. c #DEE8F3",
"R. c #DFEDF7",
"E. c gray89",
"W. c #EEEEEE",
"Q. c #E5EAF4",
"!. c #E4ECF5",
"~. c #E9ECF3",
"^. c #E8EEF7",
"/. c #EFF4F9",
"(. c gray94",
"). c #F1F4F9",
"_. c #F7F9FC",
"`. c #F9FAFC",
"'. c #FDFEFF",
"]. c #FEFEFE",
"[. c #FEFEFF",
"{. c gray100",
"}. c None",
/* pixels */
"}.}.}.}.}.}.l f f 1 }.}.}.}.}.}.",
"}.}.}.}.( =.V q 0 q h 3 }.}.}.}.",
"}.}.4 { -.p.C 6 N z i r e . }.}.",
"}.}.{ ) B.C.I N v - # # v 2 }.}.",
"}.d _ ;.J.s.U o.y = * + ; o O }.",
"}.k P H.D.g.z.^.a.B % @ a U.c }.",
"< ` 3.I.A.c.,.Y H./.@.& f.d.7   ",
"*.{.{.{.T.y.Q W H r.!.: <.D 8 X ",
"&.{.{._.{.{.c.K Z b G , > M 9 5 ",
"..{.Q.u E x.R.{.Y.7.J n m a } / ",
"}.`.).t F A S T ~ 0.7.#.| i 2.}.",
"}.>.{.Z.t.0.6.5.^ 4.i.z.V.1.%.}.",
"}.}.P.(.(.G.j.k.k.h.+.R :.~.}.}.",
"}.}.}.m.E.O.! w.9.u.L.W.K.}.}.}.",
"}.}.}.}. .n.v.v.b.M.N.$.}.}.}.}.",
"}.}.}.}.}.}.` X.' x }.}.}.}.}.}."
};
