/* XPM */
static char *xdg_browser_launcher[] = {
/* columns rows colors chars-per-pixel */
"32 32 256 2 ",
"   c #161E76",
".  c #1D247B",
"X  c #20277D",
"o  c #222A7E",
"O  c #1A2D84",
"+  c #2C3385",
"@  c #27368C",
"#  c #2A3789",
"$  c #313586",
"%  c #203990",
"&  c #283D90",
"*  c #1F499C",
"=  c #33428F",
"-  c #3A428F",
";  c #224397",
":  c #2B4695",
">  c #224699",
",  c #244C9B",
"<  c #284B9A",
"1  c #3C4592",
"2  c #3D4C95",
"3  c #354C99",
"4  c #354695",
"5  c #23509F",
"6  c #2F519F",
"7  c #3A549F",
"8  c #264FA0",
"9  c #2455A3",
"0  c #2B55A2",
"q  c #275AA5",
"w  c #295AA7",
"e  c #245CA9",
"r  c #285DA9",
"t  c #3B57A2",
"y  c #355BA6",
"u  c #3C5AA3",
"i  c #2764AF",
"p  c #2B63AC",
"a  c #2C69AF",
"s  c #3564AB",
"d  c #3961A9",
"f  c #3866AB",
"g  c #2D6DB3",
"h  c #3B6BB0",
"j  c #336EB4",
"k  c #2A75BA",
"l  c #2C7BBE",
"z  c #2C71B5",
"x  c #3F76B7",
"c  c #307ABC",
"v  c #3577B9",
"b  c #404B98",
"n  c #43539B",
"m  c #4D599D",
"M  c #50579E",
"N  c #4257A2",
"B  c #445DA4",
"V  c #4E5CA2",
"C  c #485FA8",
"Z  c #595EA1",
"A  c #535FA4",
"S  c #4960A6",
"D  c #4163AA",
"F  c #4967AA",
"G  c #4B69AD",
"H  c #4465A9",
"J  c #5463A5",
"K  c #5B63A5",
"L  c #5767A9",
"P  c #536AAC",
"I  c #5B6AAB",
"U  c #5B66A8",
"Y  c #426CB1",
"T  c #4D6DB2",
"R  c #506EB0",
"E  c #4D72B5",
"W  c #4178BA",
"Q  c #5174B3",
"!  c #547CBB",
"~  c #5977B6",
"^  c #636DAB",
"/  c #6A6FAC",
"(  c #6772A9",
")  c #777DAF",
"_  c #6374B1",
"`  c #6A77B2",
"'  c #6B7EB6",
"]  c #677EB9",
"[  c #6A7EB8",
"{  c #677CB6",
"}  c #737EB5",
"|  c #377FC0",
" . c #577FC0",
".. c #5482BE",
"X. c #6382BA",
"o. c #6C85BC",
"O. c #6A86B6",
"+. c #7782B7",
"@. c #7984B9",
"#. c #7588BD",
"$. c #7C8BBE",
"%. c #7A8AB9",
"&. c #7B91BD",
"*. c #2D83C3",
"=. c #3183C2",
"-. c #348DC9",
";. c #3388C5",
":. c #3594CE",
">. c #3896CE",
",. c #349BD4",
"<. c #35A0D7",
"1. c #39A1D7",
"2. c #35A3D9",
"3. c #3BA7DB",
"4. c #488BC5",
"5. c #5784C2",
"6. c #5A83C3",
"7. c #528BC3",
"8. c #558FC8",
"9. c #5E8BC2",
"0. c #4393CC",
"q. c #4D91C9",
"w. c #5699CD",
"e. c #5C98CB",
"r. c #429DD3",
"t. c #4D9FD2",
"y. c #519DD0",
"u. c #628CC3",
"i. c #6D8AC3",
"p. c #7E8EC0",
"a. c #748FC4",
"s. c #6493C5",
"d. c #6F90C6",
"f. c #649BCD",
"g. c #6D99CB",
"h. c #7A92C3",
"j. c #7091C8",
"k. c #729DCC",
"l. c #789ACC",
"z. c #619FD2",
"x. c #5BADDA",
"c. c #6AA0CD",
"v. c #72A1CF",
"b. c #64A5D3",
"n. c #73A3D0",
"m. c #7CABD5",
"M. c #79A8D3",
"N. c #7DBADE",
"B. c #40B7E6",
"V. c #48BCE8",
"C. c #4AB5E4",
"Z. c #50B3E1",
"A. c #66BFE6",
"S. c #6BBCE4",
"D. c #7BBDE2",
"F. c #5FC5EB",
"G. c #79C7E9",
"H. c #78D2F1",
"J. c #878AB7",
"K. c #8A8FBD",
"L. c #848BB8",
"P. c #8E91BC",
"I. c #8592C2",
"U. c #8B93C2",
"Y. c #8B9BC7",
"T. c #849DCB",
"R. c #9699C0",
"E. c #999DC7",
"W. c #989FC9",
"Q. c #8EA3CC",
"!. c #84A4CF",
"~. c #9AA4C1",
"^. c #9BA3CA",
"/. c #96A6CA",
"(. c #84ABD4",
"). c #8CAEDA",
"_. c #8BA8D2",
"`. c #9EABD2",
"'. c #83B7D9",
"]. c #8BBADD",
"[. c #89B7DC",
"{. c #94B3DA",
"}. c #9CBADC",
"|. c #A5A8C4",
" X c #A4A8CD",
".X c #AFB2CD",
"XX c #B2BBCA",
"oX c #A2ADD2",
"OX c #A6B5D6",
"+X c #ADB4D4",
"@X c #A4B7D8",
"#X c #AAB8D8",
"$X c #A3BEDE",
"%X c #B6BFDD",
"&X c #B4BFD1",
"*X c #A0BDE1",
"=X c #ACC0DE",
"-X c #A3C2DC",
";X c #BFC3D0",
":X c #B5C8DC",
">X c #94C1E2",
",X c #A5C2E4",
"<X c #AAC5E3",
"1X c #AECCE9",
"2X c #B3C5E2",
"3X c #BCCBE3",
"4X c #B2CCE8",
"5X c #B7CDE7",
"6X c #A0D1E7",
"7X c #A7D2E8",
"8X c #B3D1EA",
"9X c #BCD3EB",
"0X c #BAD5E1",
"qX c #BADFF2",
"wX c #BBE2F3",
"eX c #C1C6CE",
"rX c #C1C5DC",
"tX c #C7CADF",
"yX c #CED1D5",
"uX c #D3D3D4",
"iX c #D2D4D9",
"pX c #DADADA",
"aX c #C2CDE5",
"sX c #C9CCE1",
"dX c #C5D1E6",
"fX c #C8D3E7",
"gX c #C3D4EB",
"hX c #C5D8EE",
"jX c #CCDAED",
"kX c #CAD8E8",
"lX c #D0D4E7",
"zX c #D3DDED",
"xX c #DBDEEC",
"cX c #C3DBF1",
"vX c #CEDCF0",
"bX c #D1E0EF",
"nX c #DDE2EC",
"mX c #DCE0E3",
"MX c #C3E2F3",
"NX c #CBE3F2",
"BX c #D3E3F1",
"VX c #DCE5F3",
"CX c #D9E8F2",
"ZX c #E4E4E4",
"AX c #ECECEC",
"SX c #E3E7F2",
"DX c #E4EBF4",
"FX c #EAEEF5",
"GX c #EDF0F7",
"HX c #EDF3F9",
"JX c #E4F0F8",
"KX c #F4F4F4",
"LX c #F2F6FA",
"PX c #F5F8FA",
"IX c #FEFEFE",
"UX c None",
/* pixels */
"UXUXUXUXUXUXUXUXUXUXUXUXUXUXO X . O UXUXUXUXUXUXUXUXUXUXUXUXUXUX",
"UXUXUXUXUXUXUXUXUXUX$ U I.U.U.U.U.U./ b + . UXUXUXUXUXUXUXUXUXUX",
"UXUXUXUXUXUXUXUX$ Z U.+XI.} ` ^ U V M Z U _ n . UXUXUXUXUXUXUXUX",
"UXUXUXUXUXUXUXZ U.+X%XoX} ^ U 3 N P A J A ` o.I + UXUXUXUXUXUXUX",
"UXUXUXUXUXUX/ E.W.aXdXoXI._ N B i.i.C J J _ [ { { 2 UXUXUXUXUXUX",
"UXUXUXUXUX^ E.U.U.aXaX2XQ.P E t S j.a.#.{ V u B ] [ 1 UXUXUXUXUX",
"UXUXUXUXM  XI.L.oXjX3X2X$XT.o.T.G _.R t B B B N o.h.n # UXUXUXUX",
"UXUXUX- U.W.@.#.gXdXhXgXi.< E d D ! 6 < u > : 7 D o.~ n X UXUXUX",
"UXUXUX^ L.U.' OXBXjX5X<Xj.d ).l.Y X.H 5 Y 6 ; ; D G @ @ V   UXUX",
"UXUX1 @.@.$.`.VXjX9X9X4X*X{.).).! w q d y * ; ; 0 u % O 7 - UXUX",
"UXUXZ @._ Y.dXvXjXhXgX*X*XLXIXvX!.h f q 9 5 , , y Y aXSXY.3 UXUX",
"UX+ 2 ` #.p.dXvXhX9X5X<X4X,XbXLXIXFXdXh q q 5 5 ; aXIXLXOXS . UX",
"UX+ @ ` p.#.2XjXgX9XgX1X9X{.g.(.FXIXIXJXl.q 9 9 u FXIX3XE G + UX",
"UXM lXIXIXIXHXVX9XcXhXqX8Xv.g.v.v.VXIXIXLX}.e 9 T.IXzXE E S = UX",
"UXFXIXIXIXIXIXIXFX$X{.1XM.v.v.M.n.4.gXLXIXJXf e kXDX6.! E F = UX",
"UXIXIXIXIXIXIXIXIXIXbX}.m.m.m.m.M.v c [.HXHXa e =X! 6. .Q T = UX",
"UXIXIXIXIXIXIXIXIXIXIXIXcX0.4.f.z.l l c 8.5Xa i e h s.! E ! 2 UX",
"UXDXIXIXIXIXSXGXIXIXIXIXIXHX].0.*.*.*.=.k k z i e f X.6.u R .XUX",
"UXtXIXIXIXfXr 9.g.BXIXIXIXIXIXIXMX].0.=.l l z a p Y w y 3 rXsXUX",
"UX XIXIXIX@Xq 5.c l z.>XNXIXIXIXIXIXIXBX].f.4.j ..E X.#XnX+XP.UX",
"UXR.IXIXIX:Xh j f.l =.-.:.r.D.6XNXHXIXIXIXIXIXIXPXzXQ.S : xXJ.UX",
"UXUXDXIXIXKXh W 7.q.*.:.:.,.,.1.,.,.r.t.y.w.c.7.p q y W.GXFXUXUX",
"UXUXP.IXIXIX:XW | e.0.r.,.2.1.3.2.2.,.>.-.w.e.s.).3XPXzX^.P.UXUX",
"UXUXUXSXIXIXPXIXPXDXCXcXMXMXMXMXwXqXqXNXJXHXIXIXPXaXO.I.xXUXUXUX",
"UXUXUXP.KXKXKXKXKXKXKXKXKXPXKXPXKXPXPXIXDX8X(...s h.zXIX) UXUXUX",
"UXUXUXUX~.AXAXAXAXAXmXb.G.Z.V.V.B.A.S.,.;.l s.=XGXIXIXtXUXUXUXUX",
"UXUXUXUXUX|.AXZXZXZXc.-.r.S.F.H.H.Z.x.'.-XnXAXKXKXKXrXUXUXUXUXUX",
"UXUXUXUXUXUX|.ZXmXmX0X].N.N.6X7X0XmXZXZXZXZXAXAXAX.XUXUXUXUXUXUX",
"UXUXUXUXUXUXUX( eXpXpXpXpXuXuXpXpXpXpXpXZXZXZXpXJ.UXUXUXUXUXUXUX",
"UXUXUXUXUXUXUXUXUX&.iXuXuXuXuXyXuXuXuXpXpXiX~.UXUXUXUXUXUXUXUXUX",
"UXUXUXUXUXUXUXUXUXUXUXO.&./.;XyXuXeXXX~.O.UXUXUXUXUXUXUXUXUXUXUX",
"UXUXUXUXUXUXUXUXUXUXUXUXUXUXUXUXUXUXUXUXUXUXUXUXUXUXUXUXUXUXUXUX"
};
